<svg xmlns="http://www.w3.org/2000/svg" width="28.88" height="202.44" viewBox="0 0 28.88 202.44"><path d="M19.64,8.96C19.64,3.84,16.2.8,11.08.8,6.16.8,2.52,3.72,2.52,8.88h4.2c0-3.16,1.52-4.84,4.52-4.84,2.88,0,4.44,1.8,4.44,4.52,0,2.56-1.8,5.24-6.32,9.68L2.12,25.36V29h17.6V25.84H6.56c6-5.68,6.68-6.48,7.44-7.28C18.68,13.72,19.64,11.44,19.64,8.96Zm17.72-8-12,17.28V23H37.84v6h3.84V23h4.04V19.76H41.68V.96Zm.6,18.8H28.4l9.56-14.6ZM52,.12V29h4V15.96H69.72V29h4V.12h-4v12.4H56V.12Zm44,0V29h4V.12Zm13.4,0V29h3.64V4.48L127.72,29h5.12V.12h-3.68V24L114.96.12Zm46.16,0V29h17.4V25.44H159.52V.12Zm33.04,0L176.44,29h4.12l3.12-7.52h13.4L200.2,29h4.36L192.88.12Zm1.96,3.96,5.32,14.16H184.96Z" transform="translate(-0.12 204.56) rotate(-90)"/></svg>