<svg xmlns="http://www.w3.org/2000/svg" width="443.4" height="30.32" viewBox="0 0 443.4 30.32"><path d="M19.64,8.96C19.64,3.84,16.2.8,11.08.8,6.16.8,2.52,3.72,2.52,8.88h4.2c0-3.16,1.52-4.84,4.52-4.84,2.88,0,4.44,1.8,4.44,4.52,0,2.56-1.8,5.24-6.32,9.68L2.12,25.36V29h17.6V25.84H6.56c6-5.68,6.68-6.48,7.44-7.28C18.68,13.72,19.64,11.44,19.64,8.96Zm17.72-8-12,17.28V23H37.84v6h3.84V23h4.04V19.76H41.68V.96Zm.6,18.8H28.4l9.56-14.6ZM52,.12V29h4V15.96H69.72V29h4V.12h-4v12.4H56V.12Zm44,0V29h4V.12Zm13.4,0V29h3.64V4.48L127.72,29h5.12V.12h-3.68V24L114.96.12Zm46.16,0V29h17.4V25.44H159.52V.12Zm47.28,14.16c0-9.4-4.72-14.92-13-14.92-7.96,0-13.4,5.24-13.4,15.44,0,9.48,4.48,14.88,13.04,14.88C198.24,29.68,202.84,23.92,202.84,14.28Zm-13.28,12c-2.92,0-5.04-.96-6.4-2.68-1.88-2.36-2.52-5.88-2.52-9.08,0-7.72,3.2-11.8,9.16-11.8,5.92,0,8.8,3.96,8.8,11.32a16.97,16.97,0,0,1-2.08,8.88C195.24,24.92,192.96,26.28,189.56,26.28ZM230.72,7.32c-.08-5.44-4.36-7.76-9.88-7.76-6.24,0-11,3.12-11,8.44a6.563,6.563,0,0,0,3.24,5.84c2.28,1.36,5.76,1.8,10.4,3.16,2.56.76,3.84,1.88,3.84,4.12,0,2.88-2.24,5.16-6.76,5.16-4.6,0-6.92-1.68-6.96-5.72h-4.16v.48c0,5.28,3.4,8.64,10.68,8.64,7.04,0,11.36-3.68,11.36-9a6.575,6.575,0,0,0-4.24-6.52,58.041,58.041,0,0,0-8.16-2.32c-3.32-.84-5-1.68-5-4.24,0-2.88,2.4-4.68,6.44-4.68,3.84,0,5.88,1.52,6.04,4.4Zm28.8-7.2L247.36,29h4.12l3.12-7.52H268L271.12,29h4.36L263.8.12Zm1.96,3.96,5.32,14.16H255.88ZM281.68.12V29h3.64V4.48L300,29h5.12V.12h-3.68V24L287.24.12Zm56.76,7.2c-.16-3.4-2.24-5.52-5.12-6.76A13.79,13.79,0,0,0,328-.36c-6.12,0-10.04,2.36-12.44,7.2a18.412,18.412,0,0,0-1.8,8.2,15.487,15.487,0,0,0,3.52,10.44c2.36,2.76,5.96,4.16,11.04,4.16a31.322,31.322,0,0,0,10.24-1.76V13.64h-10.6v3.32h6.6v8.56a20.176,20.176,0,0,1-6.24.92c-4.92,0-7.92-1.8-9.32-5.68a17.931,17.931,0,0,1-1.04-6.24c0-5,1.96-8.96,4.56-10.52a9.594,9.594,0,0,1,5.04-1.2c3.56,0,6.04,1.6,6.52,4.52Zm8.72-7.2V29H365.6V25.48H351.16v-9.6H364.6V12.52H351.16v-9h14.12V.12Zm27.12,0V29h17.4V25.44H378.24V.12Zm23.56,0V29h18.44V25.48H401.84v-9.6h13.44V12.52H401.84v-9h14.12V.12Zm46.92,7.2c-.08-5.44-4.36-7.76-9.88-7.76-6.24,0-11,3.12-11,8.44a6.563,6.563,0,0,0,3.24,5.84c2.28,1.36,5.76,1.8,10.4,3.16,2.56.76,3.84,1.88,3.84,4.12,0,2.88-2.24,5.16-6.76,5.16-4.6,0-6.92-1.68-6.96-5.72h-4.16v.48c0,5.28,3.4,8.64,10.68,8.64,7.04,0,11.36-3.68,11.36-9a6.575,6.575,0,0,0-4.24-6.52,58.043,58.043,0,0,0-8.16-2.32c-3.32-.84-5-1.68-5-4.24,0-2.88,2.4-4.68,6.44-4.68,3.84,0,5.88,1.52,6.04,4.4Z" transform="translate(-2.12 0.64)"/></svg>