<svg width="959" height="61" viewBox="0 0 959 61" fill="none" xmlns="http://www.w3.org/2000/svg">
<path d="M46.8628 16.9309C46.3738 11.3413 44.1733 7.20983 40.2613 4.45551C36.3492 1.7012 31.5407 0.324038 25.7542 0.324038C6.84609 0.324038 0 15.6348 0 31.0266C0 47.1474 7.17211 60.514 24.6132 60.514C35.3713 60.514 45.3142 55.5724 46.6998 44.2311H37.7347C36.7567 50.4688 32.2742 53.8712 25.3467 53.8712C14.5072 53.8712 8.72055 45.9323 8.72055 30.9456C8.72055 15.7158 14.4256 6.80478 25.4281 6.80478C32.6817 6.80478 37.2458 10.2072 38.1423 16.9309H46.8628Z" fill="black"/>
<path d="M57.4572 1.13413V59.6228H92.9099V52.413H65.5257V1.13413H57.4572Z" fill="black"/>
<path d="M120.674 1.13413L95.898 59.6228H104.293L110.65 44.3931H137.952L144.309 59.6228H153.193L129.395 1.13413H120.674ZM124.668 9.15405L135.507 37.8313H113.258L124.668 9.15405Z" fill="black"/>
<path d="M161.154 1.13413V59.6228H169.304V1.13413H161.154Z" fill="black"/>
<path d="M184 1.13413V59.6228H191.905V7.29084L210.488 59.6228H218.23L237.546 6.9668V59.6228H245.533V1.13413H232.085L215.052 49.3347L198.425 1.13413H184Z" fill="black"/>
<path d="M283.891 1.13413V59.6228H291.96V28.5963L319.1 59.6228H330.51L301.332 27.3001L327.657 1.13413H316.492L291.96 26.7331V1.13413H283.891Z" fill="black"/>
<path d="M356.182 1.13413L331.405 59.6228H339.8L346.157 44.3931H373.46L379.817 59.6228H388.7L364.902 1.13413H356.182ZM360.175 9.15405L371.015 37.8313H348.765L360.175 9.15405Z" fill="black"/>
<path d="M396.824 1.13413V59.6228H404.73V7.29084L423.312 59.6228H431.054L450.37 6.9668V59.6228H458.357V1.13413H444.909L427.876 49.3347L411.25 1.13413H396.824Z" fill="black"/>
<path d="M473.625 1.13413V59.6228H481.775V33.6189H491.881C498.972 33.6189 504.025 32.5657 507.366 30.0545C511.197 27.1381 513.723 23.0877 513.723 17.174C513.723 11.5033 511.523 7.20983 507.692 4.2935C504.921 2.18725 501.661 1.13413 494.489 1.13413H473.625ZM481.775 26.8141V7.69589H493.674C497.831 7.69589 500.276 8.34396 502.069 9.64011C504.269 11.1793 505.084 13.7716 505.084 16.8499C505.084 23.5737 501.172 26.8141 492.452 26.8141H481.775Z" fill="black"/>
<path d="M534.066 1.13413L509.29 59.6228H517.684L524.041 44.3931H551.344L557.701 59.6228H566.584L542.786 1.13413H534.066ZM538.059 9.15405L548.899 37.8313H526.649L538.059 9.15405Z" fill="black"/>
<path d="M575.116 1.13413V59.6228H582.533V9.96415L612.443 59.6228H622.875V1.13413H615.377V49.4967L586.445 1.13413H575.116Z" fill="black"/>
<path d="M637.979 1.13413V59.6228H646.129V1.13413H637.979Z" fill="black"/>
<path d="M660.662 1.13413V59.6228H668.812V1.13413H660.662Z" fill="black"/>
<path d="M695.449 1.13413L712.157 59.6228H720.877L735.548 9.64011L749.158 59.6228H758.205L775.646 1.13413H767.659L754.293 49.6587L741.008 1.13413H730.902L716.884 49.2537L704.17 1.13413H695.449Z" fill="black"/>
<path d="M846.903 15.7158C846.74 4.69854 838.02 0 826.773 0C814.059 0 804.36 6.31873 804.36 17.093C804.36 23.0066 807.457 26.8141 810.961 28.9203C815.607 31.6746 822.698 32.5657 832.152 35.3201C837.368 36.8592 839.976 39.1275 839.976 43.664C839.976 49.4967 835.412 54.1142 826.202 54.1142C816.83 54.1142 812.103 50.7118 812.021 42.5299H803.545V43.502C803.545 54.1952 810.473 61 825.306 61C839.65 61 848.452 53.5471 848.452 42.7729C848.452 37.5883 846.577 32.5657 839.813 29.5684C835.982 27.8672 830.603 26.7331 823.187 24.8699C816.422 23.1687 812.999 21.4675 812.999 16.2829C812.999 10.4502 817.889 6.80478 826.121 6.80478C833.945 6.80478 838.101 9.88314 838.427 15.7158H846.903Z" fill="black"/>
<path d="M852.89 1.13413L873.836 59.6228H882.801L904.48 1.13413H896.248L878.644 51.1169L861.937 1.13413H852.89Z" fill="black"/>
<path d="M958.755 15.7158C958.429 8.83001 954.191 4.53653 948.323 2.02524C945.389 0.810097 941.803 0.162021 937.484 0.162021C925.014 0.162021 917.027 4.94157 912.137 14.7437C909.692 19.6853 908.47 25.2749 908.47 31.3506C908.47 39.8566 910.833 46.9044 915.642 52.494C920.45 58.0837 927.785 60.919 938.136 60.919C945.226 60.919 952.072 59.7039 959 57.3546V28.5153H937.402V35.239H950.85V52.575C946.367 53.9522 942.455 54.4382 938.136 54.4382C928.111 54.4382 921.999 50.7928 919.146 42.9349C917.679 38.9655 917.027 34.753 917.027 30.2975C917.027 20.1713 921.021 12.1514 926.318 8.99204C929.008 7.37185 932.431 6.56176 936.587 6.56176C943.841 6.56176 948.894 9.80213 949.872 15.7158H958.755Z" fill="black"/>
</svg>
