<svg xmlns="http://www.w3.org/2000/svg" xmlns:xlink="http://www.w3.org/1999/xlink" width="585.147" height="248.835" viewBox="0 0 585.147 248.835"><defs><clipPath id="a"><rect width="585.147" height="248.835" fill="none"/></clipPath></defs><g clip-path="url(#a)"><path d="M32.654,93.617a48.581,48.581,0,0,1-13.87-1.793A28.032,28.032,0,0,1,9.4,87.345a22.5,22.5,0,0,1-5.53-6.388A23.6,23.6,0,0,1,1.06,74.1,31.986,31.986,0,0,1,.4,67.516v-.468H22.135q1.014,9.974,12.777,9.972h.624q6.7,0,9.777-3.5t3.079-9.506V34.792H70.519V64.478a45.225,45.225,0,0,1-.311,5.453A31.792,31.792,0,0,1,68.961,75.5a26.578,26.578,0,0,1-2.415,5.531,21.545,21.545,0,0,1-4.051,4.909,24.216,24.216,0,0,1-5.961,4.013,35.838,35.838,0,0,1-8.3,2.65,53.711,53.711,0,0,1-10.829,1.012Z" transform="translate(0.148 12.925)" fill="#fff"/><path d="M111.028,34a86.44,86.44,0,0,1,14.063,1.051,54.672,54.672,0,0,1,10.673,2.728,30.863,30.863,0,0,1,7.558,4.128,25.929,25.929,0,0,1,5.1,4.948,22.318,22.318,0,0,1,3,5.453,25.673,25.673,0,0,1,1.478,5.376,34.936,34.936,0,0,1,.351,5.065v2.337a34.917,34.917,0,0,1-.351,5.064,26.347,26.347,0,0,1-1.478,5.415,23.653,23.653,0,0,1-2.962,5.533,24.649,24.649,0,0,1-5.1,5.027,32.038,32.038,0,0,1-7.557,4.206,51.718,51.718,0,0,1-10.636,2.765,86.8,86.8,0,0,1-14.14,1.052h-3.507a86.83,86.83,0,0,1-14.142-1.052,52.606,52.606,0,0,1-10.673-2.765,31.839,31.839,0,0,1-7.6-4.206,24.718,24.718,0,0,1-5.1-5.027,23.675,23.675,0,0,1-2.961-5.533,26.27,26.27,0,0,1-1.48-5.415,35.115,35.115,0,0,1-.351-5.064V62.746a35.134,35.134,0,0,1,.351-5.065,25.6,25.6,0,0,1,1.48-5.376,23.139,23.139,0,0,1,2.961-5.453,24.558,24.558,0,0,1,5.1-4.948,31.678,31.678,0,0,1,7.6-4.128,54.672,54.672,0,0,1,10.673-2.728A86.992,86.992,0,0,1,107.521,34Zm19.322,29.294a12.2,12.2,0,0,0-.935-4.791,13.02,13.02,0,0,0-3.154-4.324,15.772,15.772,0,0,0-6.583-3.351,38.338,38.338,0,0,0-10.441-1.247,39.007,39.007,0,0,0-10.6,1.247,15.426,15.426,0,0,0-6.545,3.351,11.83,11.83,0,0,0-3.973,9.115v.935a12.779,12.779,0,0,0,.935,4.869,14.164,14.164,0,0,0,3.116,4.519,15.256,15.256,0,0,0,6.585,3.545,36.6,36.6,0,0,0,10.478,1.325,37.647,37.647,0,0,0,10.48-1.285,15.2,15.2,0,0,0,6.583-3.469,13.7,13.7,0,0,0,3.116-4.479,12.779,12.779,0,0,0,.935-4.869Z" transform="translate(24.227 12.63)" fill="#fff"/><path d="M165.548,70.944l-31.71-36.151h26.491l16.906,20.023,17.219-20.023h24.23L187.676,71.1v21.66H165.548Z" transform="translate(49.721 12.925)" fill="#fff"/><path d="M270.222,34.792v14.18H229.239v7.246h40.126V70.477H229.239V92.76H207.345V34.792Z" transform="translate(77.029 12.925)" fill="#fff"/><path d="M267.5,34.792h22.2V60.737a18.63,18.63,0,0,0,.779,5.493,15.949,15.949,0,0,0,2.572,4.909,11.969,11.969,0,0,0,5.493,3.78,25.245,25.245,0,0,0,8.922,1.4,24.671,24.671,0,0,0,8.8-1.4,12.242,12.242,0,0,0,5.492-3.78,15.488,15.488,0,0,0,2.611-4.909,18.584,18.584,0,0,0,.779-5.493V34.792h22.128V62.451a37.4,37.4,0,0,1-.779,7.635,29.169,29.169,0,0,1-3.272,8.181,27.1,27.1,0,0,1-6.468,7.713,32.717,32.717,0,0,1-11.141,5.493,55.9,55.9,0,0,1-16.518,2.22h-3.116a57.909,57.909,0,0,1-16.908-2.22,33.205,33.205,0,0,1-11.259-5.493,26.114,26.114,0,0,1-6.465-7.752,28.462,28.462,0,0,1-3.156-8.143,40.5,40.5,0,0,1-.7-7.635Z" transform="translate(99.378 12.925)" fill="#fff"/><path d="M362.856,34.792V76.163h40.2v16.6H340.728V34.792Z" transform="translate(126.58 12.925)" fill="#fff"/><path d="M42.289,144.306a70.46,70.46,0,0,1-17.882-2.026,37.9,37.9,0,0,1-11.959-5.025,25.453,25.453,0,0,1-6.934-7.129,24.139,24.139,0,0,1-3.427-7.635,33.653,33.653,0,0,1-.779-7.324v-2.26a34.628,34.628,0,0,1,.739-7.322A25.381,25.381,0,0,1,12.175,91.054a38.133,38.133,0,0,1,12-4.909,73.443,73.443,0,0,1,18.115-1.986h3.038a87.037,87.037,0,0,1,13.284.934A54.808,54.808,0,0,1,68.74,87.508a34.823,34.823,0,0,1,7.246,3.545,22.974,22.974,0,0,1,4.948,4.168A20.363,20.363,0,0,1,83.855,99.7a17.783,17.783,0,0,1,1.481,4.245,19.9,19.9,0,0,1,.35,3.662v1.014H62.7q-2.65-8.881-19.089-8.882-19.4,0-19.4,13.557v.934a13.581,13.581,0,0,0,.9,4.909,14.69,14.69,0,0,0,2.96,4.6,13.98,13.98,0,0,0,6.077,3.584,30.57,30.57,0,0,0,9.544,1.325,35.981,35.981,0,0,0,8.492-.9,21.543,21.543,0,0,0,5.533-1.989,10.511,10.511,0,0,0,3.117-2.727,10.24,10.24,0,0,0,1.48-2.337q.232-.7.466-1.558H85.686v1.248a19.911,19.911,0,0,1-.779,5.415,19.421,19.421,0,0,1-3.427,6.232,25.449,25.449,0,0,1-6.818,6.077,39.8,39.8,0,0,1-11.765,4.4,77.026,77.026,0,0,1-17.57,1.793Z" transform="translate(0.486 31.265)" fill="#fff"/><path d="M115.573,84.159a86.454,86.454,0,0,1,14.063,1.051,54.671,54.671,0,0,1,10.673,2.728,30.888,30.888,0,0,1,7.558,4.128,25.967,25.967,0,0,1,5.1,4.948,22.314,22.314,0,0,1,3,5.453,25.6,25.6,0,0,1,1.48,5.376,35.14,35.14,0,0,1,.35,5.065v2.337a35.121,35.121,0,0,1-.35,5.064,26.272,26.272,0,0,1-1.48,5.415,23.578,23.578,0,0,1-2.962,5.533,24.673,24.673,0,0,1-5.1,5.027,32.065,32.065,0,0,1-7.557,4.206,51.717,51.717,0,0,1-10.636,2.765,86.8,86.8,0,0,1-14.14,1.052h-3.508a86.824,86.824,0,0,1-14.14-1.052,52.606,52.606,0,0,1-10.673-2.765,31.785,31.785,0,0,1-7.6-4.206,24.683,24.683,0,0,1-5.1-5.027,23.625,23.625,0,0,1-2.961-5.533,26.27,26.27,0,0,1-1.48-5.415,35.111,35.111,0,0,1-.352-5.064v-2.337a35.13,35.13,0,0,1,.352-5.065,25.6,25.6,0,0,1,1.48-5.376,23.09,23.09,0,0,1,2.961-5.453,24.524,24.524,0,0,1,5.1-4.948,31.625,31.625,0,0,1,7.6-4.128A54.67,54.67,0,0,1,97.924,85.21a86.987,86.987,0,0,1,14.14-1.051Zm19.322,29.294a12.2,12.2,0,0,0-.935-4.791,13.006,13.006,0,0,0-3.154-4.324,15.778,15.778,0,0,0-6.585-3.351,38.324,38.324,0,0,0-10.441-1.247,39,39,0,0,0-10.595,1.247,15.418,15.418,0,0,0-6.545,3.351,11.83,11.83,0,0,0-3.973,9.115v.935a12.779,12.779,0,0,0,.935,4.869,14.143,14.143,0,0,0,3.116,4.519,15.258,15.258,0,0,0,6.583,3.545,36.6,36.6,0,0,0,10.478,1.325,37.657,37.657,0,0,0,10.481-1.285,15.2,15.2,0,0,0,6.583-3.469,13.732,13.732,0,0,0,3.116-4.479,12.779,12.779,0,0,0,.935-4.869Z" transform="translate(25.915 31.265)" fill="#fff"/><path d="M164.543,84.953v41.371h40.2v16.6H142.415V84.953Z" transform="translate(52.907 31.56)" fill="#fff"/><path d="M239.524,84.159a86.429,86.429,0,0,1,14.063,1.051,54.658,54.658,0,0,1,10.674,2.728,30.887,30.887,0,0,1,7.558,4.128,25.929,25.929,0,0,1,5.1,4.948,22.264,22.264,0,0,1,3,5.453,25.609,25.609,0,0,1,1.481,5.376,35.326,35.326,0,0,1,.35,5.065v2.337a35.307,35.307,0,0,1-.35,5.064,26.281,26.281,0,0,1-1.481,5.415,23.571,23.571,0,0,1-2.96,5.533,24.718,24.718,0,0,1-5.1,5.027,32.037,32.037,0,0,1-7.557,4.206,51.717,51.717,0,0,1-10.636,2.765,86.818,86.818,0,0,1-14.142,1.052h-3.506a86.817,86.817,0,0,1-14.142-1.052,52.581,52.581,0,0,1-10.673-2.765,31.759,31.759,0,0,1-7.6-4.206,24.682,24.682,0,0,1-5.1-5.027,23.575,23.575,0,0,1-2.961-5.533,26.361,26.361,0,0,1-1.48-5.415,35.119,35.119,0,0,1-.351-5.064v-2.337a35.138,35.138,0,0,1,.351-5.065,25.686,25.686,0,0,1,1.48-5.376,23.041,23.041,0,0,1,2.961-5.453,24.523,24.523,0,0,1,5.1-4.948,31.6,31.6,0,0,1,7.6-4.128,54.645,54.645,0,0,1,10.673-2.728,86.98,86.98,0,0,1,14.142-1.051Zm19.323,29.294a12.23,12.23,0,0,0-.935-4.791,13.026,13.026,0,0,0-3.154-4.324,15.778,15.778,0,0,0-6.585-3.351,38.324,38.324,0,0,0-10.441-1.247,39,39,0,0,0-10.595,1.247,15.426,15.426,0,0,0-6.545,3.351,11.83,11.83,0,0,0-3.973,9.115v.935a12.78,12.78,0,0,0,.935,4.869,14.142,14.142,0,0,0,3.116,4.519,15.25,15.25,0,0,0,6.583,3.545,36.6,36.6,0,0,0,10.478,1.325,37.648,37.648,0,0,0,10.48-1.285,15.21,15.21,0,0,0,6.585-3.469,13.754,13.754,0,0,0,3.116-4.479,12.806,12.806,0,0,0,.935-4.869Z" transform="translate(71.964 31.265)" fill="#fff"/><path d="M288.5,142.921H266.368V84.953h52.67q24.387,0,24.387,14.882v.857a12.166,12.166,0,0,1-1.17,5.376,10.73,10.73,0,0,1-3.076,3.9,20.025,20.025,0,0,1-3.74,2.337,20.284,20.284,0,0,1-3.7,1.325,16.133,16.133,0,0,1,8.727,4.792,12.935,12.935,0,0,1,3.2,9v8.57q0,4.52,1.09,6.545v.389h-22.6a4.72,4.72,0,0,1-.7-3.039V133.1q0-5.141-2.688-7.6t-9.077-2.455H288.5Zm0-33.892h25.4q6.7,0,6.7-4.987v-.077q0-4.909-6.7-4.909H288.5Z" transform="translate(98.956 31.56)" fill="#fff"/><path d="M365.08,144.285q-35.372,0-35.372-20.568v-.779h24.308q.623,8.18,14.491,8.18h.7a52.942,52.942,0,0,0,7.4-.428,12.647,12.647,0,0,0,4.364-1.245,5.036,5.036,0,0,0,1.908-1.714,4.117,4.117,0,0,0,.507-2.065v-.078a3.934,3.934,0,0,0-.819-2.61q-.819-.973-3.9-1.713a45.811,45.811,0,0,0-8.922-.9L359,120.055q-28.437-.78-28.437-17.454v-.7a16.594,16.594,0,0,1,.856-5.493,13.309,13.309,0,0,1,3.116-4.792,17.82,17.82,0,0,1,5.922-3.9,42.725,42.725,0,0,1,9.622-2.533,86.576,86.576,0,0,1,13.829-.974h6.934q35.218,0,35.217,18.31v.624H381.987q-.7-6.155-14.024-6.155h-.78a40.862,40.862,0,0,0-8.414.662q-2.96.66-3.661,1.48a3.177,3.177,0,0,0-.7,2.144v.077a3.037,3.037,0,0,0,.817,2.182,8.009,8.009,0,0,0,3.7,1.518,40.847,40.847,0,0,0,8.1.741l10.44.233q16.439.469,23.529,4.559t7.091,12.895v1.09a20.229,20.229,0,0,1-.779,5.8,14.614,14.614,0,0,1-3.116,5.3A18.679,18.679,0,0,1,398,140.2a41.146,41.146,0,0,1-10.44,2.961,92.083,92.083,0,0,1-15.388,1.129Z" transform="translate(122.486 31.286)" fill="#fff"/><path d="M12.158,1.231v16.2a11.794,11.794,0,0,1-1.012,5.7,6.794,6.794,0,0,1-6.364,3.6A9.068,9.068,0,0,1,0,25.46l2.027-3.226a4.35,4.35,0,0,0,2.836.9,2.72,2.72,0,0,0,2.716-1.688c.244-.562.446-1.463.446-4.014V1.231Z" transform="translate(0 0.457)" fill="#fff"/><path d="M31.467,4.831H20.685V11.17H31.143v3.6H20.685v7.877H31.467v3.6H16.55V1.23H31.467Z" transform="translate(6.148 0.457)" fill="#fff"/><path d="M34.285,0V26.7H38.42V9.226L58.036,28.242V1.687H53.9V19.016Z" transform="translate(12.737)" fill="#fff"/><path d="M59.29,0V26.7h4.134V9.226L83.04,28.242V1.687H78.908V19.016Z" transform="translate(22.026)" fill="#fff"/><path d="M90.806,15.445,81.93,1.231h4.7l6.242,10.013L99.116,1.231h4.7L94.941,15.445v10.8H90.806Z" transform="translate(30.437 0.457)" fill="#fff"/><path d="M126.589,4.831h-9.4V11.17h9.079v3.6h-9.079V26.247h-4.134V1.23h13.537Z" transform="translate(41.999 0.457)" fill="#fff"/><path d="M139.588,8.529,143.6,17h-8.186ZM126.294,26.644h4.459l2.958-6.039h11.551l2.838,6.039h4.459L139.751.164Z" transform="translate(46.918 0.061)" fill="#fff"/><rect width="4.135" height="25.016" transform="translate(206.939 1.688)" fill="#fff"/><path d="M165.719,12.708h1.3c1.136,0,5.756-.114,5.756-4.088,0-3.526-3.607-3.864-5.634-3.864h-1.418Zm.689-11.477c3.283,0,5.39.374,7.135,1.462a6.787,6.787,0,0,1,3.2,5.889c0,3.6-2.392,6.225-6,6.977l8.431,10.688h-4.985l-7.741-10.238h-.73V26.247h-4.135V1.231Z" transform="translate(60.028 0.457)" fill="#fff"/><path d="M186.835,15.445,177.959,1.231h4.7L188.9,11.244l6.242-10.013h4.7l-8.875,14.214v10.8h-4.135Z" transform="translate(66.112 0.457)" fill="#fff"/><path d="M203.342,166.044l-9.473-24.306h10.323l5.522,16.041,4.866-16.041h10.454l4.933,15.779,5.357-15.779h9.506l-9.473,24.306H224.61l-5.065-15.354-4.9,15.354Z" transform="translate(72.022 52.656)" fill="#fff"/><rect width="9.244" height="24.306" transform="translate(318.64 194.394)" fill="#fff"/><path d="M251.746,148.371H241.259v-6.633H271.51v6.633H261.024v17.673h-9.278Z" transform="translate(89.628 52.656)" fill="#fff"/><path d="M265.551,141.738h9.277v8.592h15.191v-8.592h9.245v24.306h-9.245V156.8H274.828v9.247h-9.277Z" transform="translate(98.652 52.656)" fill="#fff"/><path d="M329.132,166.4a20.37,20.37,0,0,1-5.815-.752,11.71,11.71,0,0,1-3.936-1.878,9.444,9.444,0,0,1-2.321-2.679,9.963,9.963,0,0,1-1.175-2.876,13.381,13.381,0,0,1-.277-2.759v-.2h9.114q.424,4.18,5.357,4.182h.262a5.187,5.187,0,0,0,4.1-1.47,5.83,5.83,0,0,0,1.292-3.986v-12.25h9.277v12.446a18.9,18.9,0,0,1-.132,2.288,13.27,13.27,0,0,1-.521,2.334,11.11,11.11,0,0,1-1.014,2.319,9.006,9.006,0,0,1-1.7,2.059,10.124,10.124,0,0,1-2.5,1.683,15.052,15.052,0,0,1-3.478,1.11,22.468,22.468,0,0,1-4.541.425Z" transform="translate(117.248 52.656)" fill="#fff"/><path d="M366.5,141.738v5.945H348.758v3.039h17.38v5.913h-17.38v3.331h18v6.077H339.612V141.738Z" transform="translate(126.166 52.656)" fill="#fff"/><path d="M372.219,141.738l14.113,13.819V141.738h9.212v24.306h-9.278L371.044,151.31v14.734h-9.212V141.738Z" transform="translate(134.42 52.656)" fill="#fff"/><path d="M203.342,187.08l-9.473-24.306h10.323l5.522,16.041,4.866-16.041h10.454l4.933,15.779,5.357-15.779h9.506l-9.473,24.306H224.61l-5.065-15.354-4.9,15.354Z" transform="translate(72.022 60.47)" fill="#fff"/><path d="M250.156,162.441a36.3,36.3,0,0,1,5.9.44,22.9,22.9,0,0,1,4.474,1.144,12.844,12.844,0,0,1,3.17,1.732,10.794,10.794,0,0,1,2.14,2.074,9.321,9.321,0,0,1,1.258,2.288,10.717,10.717,0,0,1,.621,2.253,14.666,14.666,0,0,1,.147,2.123v.981a14.666,14.666,0,0,1-.147,2.123,11.021,11.021,0,0,1-.621,2.27,9.858,9.858,0,0,1-1.241,2.319,10.338,10.338,0,0,1-2.138,2.108,13.425,13.425,0,0,1-3.17,1.764,21.73,21.73,0,0,1-4.46,1.159,36.344,36.344,0,0,1-5.929.442h-1.47a36.356,36.356,0,0,1-5.929-.442,22.09,22.09,0,0,1-4.475-1.159A13.328,13.328,0,0,1,235.1,184.3a10.3,10.3,0,0,1-2.138-2.108,9.911,9.911,0,0,1-1.243-2.319,11.093,11.093,0,0,1-.62-2.27,14.662,14.662,0,0,1-.147-2.123V174.5a14.661,14.661,0,0,1,.147-2.123,10.787,10.787,0,0,1,.62-2.253,9.7,9.7,0,0,1,1.243-2.288,10.249,10.249,0,0,1,2.138-2.074,13.215,13.215,0,0,1,3.186-1.732,22.92,22.92,0,0,1,4.475-1.144,36.518,36.518,0,0,1,5.929-.44Zm8.1,12.283a5.135,5.135,0,0,0-.391-2.009,5.5,5.5,0,0,0-1.323-1.813,6.618,6.618,0,0,0-2.761-1.406,16.132,16.132,0,0,0-4.378-.521,16.415,16.415,0,0,0-4.442.521,6.459,6.459,0,0,0-2.743,1.406,4.949,4.949,0,0,0-1.666,3.822v.391a5.375,5.375,0,0,0,.391,2.042,5.941,5.941,0,0,0,1.307,1.9,6.38,6.38,0,0,0,2.761,1.485,15.293,15.293,0,0,0,4.393.557,15.789,15.789,0,0,0,4.394-.539,6.4,6.4,0,0,0,2.761-1.455,5.807,5.807,0,0,0,1.307-1.878,5.38,5.38,0,0,0,.391-2.042Z" transform="translate(85.797 60.347)" fill="#fff"/><path d="M270.6,162.774l14.113,13.819V162.774h9.212V187.08h-9.278l-15.222-14.734V187.08h-9.212V162.774Z" transform="translate(96.67 60.471)" fill="#fff"/><path d="M287.769,162.775h17.248a35.547,35.547,0,0,1,7.188.653,18,18,0,0,1,5.062,1.732,10.541,10.541,0,0,1,3.153,2.613,9.1,9.1,0,0,1,1.683,3.1,12.109,12.109,0,0,1,.458,3.4v.981a13.342,13.342,0,0,1-.409,3.364,9.313,9.313,0,0,1-1.6,3.17,10.53,10.53,0,0,1-3.072,2.727,17.368,17.368,0,0,1-5.064,1.846,33.647,33.647,0,0,1-7.366.719H287.769Zm9.277,17.869h6.893q8.984,0,8.983-5.685v-.195q0-5.62-8.983-5.619h-6.893Z" transform="translate(106.906 60.471)" fill="#fff"/><path d="M342.326,162.774v5.945H324.587v3.039h17.38v5.911h-17.38V181h18v6.077H315.441V162.774Z" transform="translate(117.186 60.471)" fill="#fff"/><path d="M347.128,187.079H337.85v-24.3h22.084q10.227,0,10.225,6.239v.359a5.11,5.11,0,0,1-.49,2.255,4.516,4.516,0,0,1-1.291,1.633,8.165,8.165,0,0,1-3.119,1.535,6.762,6.762,0,0,1,3.658,2.009,5.426,5.426,0,0,1,1.34,3.773v3.593a6.119,6.119,0,0,0,.457,2.744v.163h-9.473a1.966,1.966,0,0,1-.295-1.273v-2.843a4.108,4.108,0,0,0-1.126-3.185,5.6,5.6,0,0,0-3.806-1.03h-8.886Zm0-14.21h10.65q2.81,0,2.809-2.09v-.033q0-2.059-2.809-2.059h-10.65Z" transform="translate(125.511 60.471)" fill="#fff"/><path d="M378.043,187.651q-14.831,0-14.83-8.624V178.7H373.4q.261,3.431,6.076,3.43h.295a22.1,22.1,0,0,0,3.1-.18,5.275,5.275,0,0,0,1.83-.523,2.09,2.09,0,0,0,.8-.72,1.711,1.711,0,0,0,.214-.864v-.033a1.645,1.645,0,0,0-.343-1.094,3.25,3.25,0,0,0-1.635-.719,19.359,19.359,0,0,0-3.739-.376l-4.508-.13q-11.924-.327-11.925-7.318v-.294a6.957,6.957,0,0,1,.359-2.3,5.583,5.583,0,0,1,1.307-2.009,7.465,7.465,0,0,1,2.484-1.632,17.9,17.9,0,0,1,4.034-1.062,36.264,36.264,0,0,1,5.8-.409h2.908q14.765,0,14.766,7.676v.262H385.132q-.3-2.58-5.88-2.581h-.326a17.042,17.042,0,0,0-3.53.278,3.144,3.144,0,0,0-1.535.62,1.34,1.34,0,0,0-.294.9v.032a1.27,1.27,0,0,0,.343.915,3.342,3.342,0,0,0,1.551.638,17.2,17.2,0,0,0,3.4.31l4.376.1q6.894.193,9.865,1.91a5.79,5.79,0,0,1,2.973,5.406v.458a8.533,8.533,0,0,1-.326,2.433,6.118,6.118,0,0,1-1.307,2.22,7.821,7.821,0,0,1-2.6,1.9,17.245,17.245,0,0,1-4.376,1.241,38.49,38.49,0,0,1-6.452.473Z" transform="translate(134.933 60.356)" fill="#fff"/><path d="M436.347,167.022c-1.628.324-3.094.577-4.549.911A29.737,29.737,0,0,0,424,170.6a6.051,6.051,0,0,0-2.836,3.643c-1.616,4.88-2.1,10.266-2.858,15.436-.395-3.87-.964-7.712-1.7-11.5a15.769,15.769,0,0,0-1.884-5.6,8.08,8.08,0,0,0-4.514-3.122,53,53,0,0,0-6.244-1.739c-1.131-.247-2.271-.436-3.415-.805.2-.042.4-.089.6-.126a55.158,55.158,0,0,0,8.992-2.253,8.31,8.31,0,0,0,5.656-5.53,46.992,46.992,0,0,0,1.525-7.017c.217-1.262.863-6.955.983-7.674.143.384,1.2,8.089,1.621,10.454a18.553,18.553,0,0,0,1.972,6.43,7.4,7.4,0,0,0,4.169,3.146,46.722,46.722,0,0,0,6.268,1.814c1.167.256,3.746.753,4.017.861" transform="translate(148.8 53.614)" fill="#fff"/><path d="M412.475,177.27c-.654.129-1.243.232-1.827.366a11.959,11.959,0,0,0-3.133,1.068,2.431,2.431,0,0,0-1.138,1.463,36.765,36.765,0,0,0-1.148,6.2q-.237-2.331-.684-4.616a6.334,6.334,0,0,0-.756-2.247,3.252,3.252,0,0,0-1.813-1.254,21.468,21.468,0,0,0-2.506-.7,13.69,13.69,0,0,1-1.373-.322c.081-.018.162-.036.243-.051a22.331,22.331,0,0,0,3.611-.9,3.337,3.337,0,0,0,2.27-2.222,18.909,18.909,0,0,0,.613-2.817c.086-.506.346-2.792.4-3.08.056.154.483,3.248.65,4.2a7.473,7.473,0,0,0,.793,2.583,2.974,2.974,0,0,0,1.673,1.263,19.033,19.033,0,0,0,2.517.728c.469.1,1.5.3,1.613.346" transform="translate(147.893 62.469)" fill="#fff"/><path d="M408.08,150.858c-.654.13-1.243.232-1.827.366a11.958,11.958,0,0,0-3.133,1.068,2.431,2.431,0,0,0-1.138,1.463,36.771,36.771,0,0,0-1.148,6.2q-.237-2.331-.684-4.616a6.306,6.306,0,0,0-.757-2.247,3.244,3.244,0,0,0-1.812-1.254,21.486,21.486,0,0,0-2.507-.7c-.454-.1-.912-.174-1.372-.322.081-.018.162-.036.243-.051a22.277,22.277,0,0,0,3.61-.9,3.339,3.339,0,0,0,2.271-2.222,18.74,18.74,0,0,0,.612-2.817c.088-.506.347-2.792.395-3.08.058.154.483,3.248.652,4.2a7.47,7.47,0,0,0,.793,2.583,2.97,2.97,0,0,0,1.673,1.263,18.918,18.918,0,0,0,2.517.728c.469.1,1.5.3,1.613.346" transform="translate(146.26 52.657)" fill="#fff"/></g></svg>