<svg width="182" height="42" viewBox="0 0 182 42" fill="none" xmlns="http://www.w3.org/2000/svg">
<path d="M155.996 1.0376H164.661V15.6123H168.078C171.454 15.3301 173.235 11.8456 173.136 8.17074H181.677C181.723 14.6477 180.074 17.6204 175.429 19.4053C177.308 20.0615 181.926 22.0302 181.926 29.2486V34.2293H173.301V28.9796C173.301 26.6172 171.106 22.9948 167.21 23.1457H164.655V34.2359H155.996V1.0376Z" fill="black"/>
<path d="M139.013 27.878C139.846 27.8592 140.667 27.6765 141.43 27.3405C142.192 27.0044 142.881 26.5214 143.456 25.9192C144.032 25.317 144.483 24.6074 144.783 23.831C145.084 23.0546 145.228 22.2267 145.208 21.3945C145.226 20.5655 145.079 19.7412 144.777 18.969C144.475 18.1967 144.023 17.4916 143.447 16.8941C142.872 16.2967 142.184 15.8186 141.423 15.4873C140.662 15.1559 139.843 14.9779 139.013 14.9634C138.182 14.9771 137.361 15.1544 136.598 15.4851C135.835 15.8158 135.145 16.2934 134.568 16.8907C133.99 17.488 133.535 18.1932 133.231 18.966C132.926 19.7388 132.777 20.564 132.791 21.3945C132.756 23.0782 133.392 24.707 134.558 25.9227C135.725 27.1385 137.327 27.8418 139.013 27.878ZM124.251 21.4469C124.251 13.9069 129.612 7.77783 139.013 7.77783C148.414 7.77783 153.801 13.9069 153.801 21.4469C153.801 28.9869 148.191 35.1226 139.013 35.1226C130.229 35.1226 124.251 29.0066 124.251 21.4469Z" fill="black"/>
<path d="M110.337 8.1845H104.503V15.7442H108.655C111.283 15.7442 113.529 18.1394 113.529 21.1515C113.529 24.7935 110.764 26.5981 108.78 26.6375H102.676V1.00537H94.0439V34.23H108.74C114.942 34.23 122.228 29.4002 122.228 21.4336C122.228 13.4671 116.433 8.15822 110.337 8.15822" fill="black"/>
<path d="M32.362 12.207C32.362 4.7786 25.6741 0.559082 19.8206 0.559082H0V34.2496H8.39599V8.34188H18.1125C21.0031 8.34188 23.4864 9.98242 23.4864 13.8148C23.4864 16.9253 21.463 19.0646 18.7037 19.1958H18.4541H10.8202V26.6571H15.8854C20.0505 26.8474 22.2251 28.6717 22.2711 33.5474V41.304H31.035V31.2375C31.035 26.7949 27.4808 24.1174 25.3391 23.0544L25.3062 22.9953L25.3719 22.9297C29.8656 21.2629 32.362 17.0893 32.362 12.1742" fill="black"/>
<path d="M76.4172 26.6957C74.9994 26.6596 73.6538 26.063 72.6758 25.0369C71.6979 24.0109 71.1674 22.6391 71.2009 21.2228C71.1656 19.8028 71.6944 18.4266 72.6718 17.3949C73.6493 16.3632 74.9959 15.76 76.4172 15.7171H82.1657L76.9691 24.786H85.3716L90.7587 15.9861V8.19678H75.1887C68.3563 8.19678 62.8115 14.024 62.8115 21.2162C62.8115 28.4084 68.3563 34.2357 75.1887 34.2357H90.8047V26.6825L76.4172 26.6957Z" fill="black"/>
<path d="M41.5273 21.2228C41.4938 19.7967 42.0286 18.4156 43.0141 17.3832C43.9997 16.3508 45.3553 15.7515 46.783 15.7171H52.5249L47.3152 24.786H55.7111L61.0785 15.9861V8.19678H45.5151C38.6695 8.19678 33.1182 14.0175 33.1182 21.2097C33.1182 28.4019 38.6695 34.2357 45.5151 34.2357H61.1245V26.6825H46.7764C46.071 26.668 45.3753 26.5148 44.7292 26.2315C44.0831 25.9481 43.4993 25.5403 43.0111 25.0314C42.523 24.5225 42.1401 23.9224 41.8843 23.2655C41.6286 22.6086 41.505 21.9077 41.5207 21.2031" fill="black"/>
</svg>
