<svg width="152" height="76" viewBox="0 0 152 76" fill="none" xmlns="http://www.w3.org/2000/svg">
<path d="M82.0324 0.230084C81.5462 0.302268 81.0732 2.11997 80.1206 3.05836C79.4177 3.71459 78.5636 3.7146 78.0841 4.548C77.9198 4.85643 77.9724 5.40105 77.7884 5.89978C77.3811 6.93662 76.0278 7.04164 76.0146 8.1441C76.0146 9.37123 77.1577 9.60749 78.1497 10.4606C78.9447 11.1168 78.9972 11.6287 79.9235 11.9502C80.7448 12.2324 81.9404 11.3465 82.9981 11.668C83.8785 11.9305 84.7325 12.1143 84.923 13.0264C85.1136 13.9386 84.923 15.146 83.8325 14.9951C82.587 14.6632 81.2943 14.5434 80.009 14.6407C77.6964 14.8901 75.0489 15.6382 74.7927 18.2171C74.6613 19.6608 76.4351 21.3473 78.1629 21.0126C79.3454 20.7829 78.787 19.3786 79.4374 18.7027C80.2849 17.8299 85.0939 21.7476 89.5678 21.7476C90.4465 21.7927 91.3241 21.6391 92.1352 21.2982C92.9462 20.9573 93.6698 20.438 94.2519 19.7789C94.3767 19.6871 94.5475 19.4574 94.7446 19.4312C94.9676 19.4881 95.1788 19.5836 95.3688 19.7133C98.982 22.6007 101.702 28.4083 114.946 28.4739C117.095 28.5945 119.129 29.4845 120.675 30.9807C122.206 32.3719 123.112 34.6031 123.993 36.8867C125.307 40.2794 127.698 43.5539 131.311 47.2091C131.502 47.4256 134.471 49.7224 134.695 49.893C134.845 50.1384 134.903 50.4291 134.859 50.7133C134.8 52.9379 134.471 59.3164 139.228 59.5855C140.39 59.6445 140.101 58.8374 140.101 58.273C140.101 57.1771 139.898 56.0616 140.463 54.9263C141.271 53.3776 138.781 52.6361 138.84 49.2631C138.899 46.7432 136.777 47.1697 135.7 45.2404C135.089 44.138 134.517 43.5277 134.576 42.1955C134.806 34.5243 132.927 29.4779 132.008 28.2508C131.285 27.3058 130.654 26.9383 131.351 26.5183C135.292 23.8935 136.219 21.4458 136.219 21.4458C138.334 16.4847 140.233 11.9568 142.854 9.94871C143.708 9.27223 144.615 8.66649 145.567 8.13753C148.011 6.96945 149.312 6.28043 150.002 5.60451C151.138 4.51518 152.032 2.21183 150.941 0.833758C150.746 0.570036 150.49 0.356863 150.195 0.2119C149.9 0.0669364 149.575 -0.00563532 149.246 0.000341416H149.207C148.149 0.118396 147.135 0.494785 146.257 1.09626C138.958 5.42734 137.887 13.0658 135.345 17.4494C133.374 20.9536 130.089 23.5325 127.107 23.736C124.726 23.8676 122.349 23.4171 120.182 22.4235C116.639 20.8586 113.381 18.7139 110.545 16.0778C108.994 14.89 97.0374 3.14369 87.3012 2.66465C87.3012 2.66465 86.1121 0.249745 85.8165 0.203809C85.1004 0.125062 84.3712 1.6606 83.8456 1.81809C83.32 1.97559 82.5317 0.170963 82.039 0.24971" fill="black"/>
<path d="M39.3041 70.3416C38.8589 70.3349 38.4337 70.1561 38.1176 69.8429C37.8015 69.5296 37.6193 69.1062 37.6092 68.6616V39.1315C37.6074 38.9354 37.5287 38.7478 37.3898 38.6091C37.251 38.4704 37.0631 38.3917 36.8668 38.39H28.3854C28.1879 38.39 27.9984 38.468 27.8581 38.6068C27.7179 38.7457 27.6382 38.9343 27.6365 39.1315V70.9846C27.6382 71.9668 28.03 72.9082 28.7259 73.6021C29.4219 74.296 30.365 74.6857 31.3483 74.6857H47.2862C48.2689 74.6857 49.2114 74.2958 49.9062 73.6017C50.6011 72.9076 50.9915 71.9662 50.9915 70.9846V39.1315C50.9898 38.9343 50.9101 38.7457 50.7698 38.6068C50.6296 38.468 50.4401 38.39 50.2426 38.39H41.7415C41.5451 38.3917 41.3573 38.4704 41.2184 38.6091C41.0796 38.7478 41.0008 38.9354 40.9991 39.1315V68.6616C40.9857 69.1052 40.8025 69.5267 40.4871 69.8393C40.1717 70.1519 39.7483 70.3317 39.3041 70.3416Z" fill="black"/>
<path d="M72.6902 38.4152H58.3618C57.839 38.4152 57.3213 38.5181 56.8383 38.718C56.3553 38.9178 55.9164 39.2107 55.5467 39.58C55.177 39.9493 54.8838 40.3877 54.6837 40.8702C54.4836 41.3526 54.3806 41.8698 54.3806 42.392V73.9695C54.3824 74.1656 54.4611 74.3532 54.6 74.4919C54.7388 74.6306 54.9267 74.7093 55.123 74.711H63.611C63.8073 74.7093 63.9952 74.6306 64.134 74.4919C64.2729 74.3532 64.3516 74.1656 64.3533 73.9695V44.3869C64.3653 43.9435 64.5496 43.5222 64.8673 43.2123C65.1849 42.9024 65.6109 42.7282 66.0549 42.7267C66.4987 42.7232 66.9259 42.895 67.2434 43.2048C67.5609 43.5145 67.7429 43.937 67.7498 44.3803V73.9695C67.7516 74.1656 67.8303 74.3532 67.9692 74.4919C68.108 74.6306 68.2959 74.7093 68.4922 74.711H76.9539C77.1503 74.7093 77.3381 74.6306 77.4769 74.4919C77.6158 74.3532 77.6946 74.1656 77.6963 73.9695V44.3803C77.698 44.1608 77.7431 43.9439 77.8289 43.7419C77.9148 43.5399 78.0397 43.3569 78.1966 43.2032C78.3535 43.0496 78.5392 42.9284 78.7431 42.8466C78.9469 42.7648 79.165 42.7241 79.3847 42.7267C79.8297 42.7249 80.2576 42.898 80.576 43.2086C80.8943 43.5192 81.0776 43.9424 81.0862 44.3869V73.9695C81.0879 74.1667 81.1676 74.3553 81.3079 74.4941C81.4481 74.633 81.6376 74.711 81.8351 74.711H90.3165C90.4162 74.7145 90.5156 74.6979 90.6087 74.6622C90.7018 74.6265 90.7868 74.5725 90.8585 74.5033C90.9303 74.4341 90.9873 74.3511 91.0263 74.2594C91.0652 74.1676 91.0852 74.0691 91.0852 73.9695V42.3854C91.0766 41.3438 90.6585 40.3473 89.9212 39.6107C89.1838 38.8742 88.1862 38.4567 87.1434 38.4481L72.6902 38.4152Z" fill="black"/>
<path d="M14.2931 44.4462C14.2931 43.9949 14.114 43.5619 13.7951 43.2421C13.4762 42.9223 13.0434 42.7417 12.5915 42.74H10.8834V61.1143H12.5915C12.817 61.1134 13.04 61.068 13.2478 60.9806C13.4555 60.8933 13.6439 60.7657 13.8021 60.6053C13.9603 60.4448 14.0851 60.2547 14.1694 60.0459C14.2536 59.837 14.2957 59.6135 14.2931 59.3884V44.4462ZM20.9875 65.5897H11.6258C11.4294 65.5914 11.2416 65.6701 11.1028 65.8088C10.9639 65.9475 10.8851 66.1351 10.8834 66.3313V73.9697C10.8817 74.1659 10.8029 74.3535 10.6641 74.4922C10.5252 74.6309 10.3374 74.7095 10.1411 74.7113H1.66623C1.46934 74.7113 1.28052 74.6331 1.1413 74.494C1.00208 74.355 0.923857 74.1664 0.923857 73.9697V39.157C0.92299 39.0591 0.941552 38.9619 0.97847 38.8712C1.01539 38.7805 1.06994 38.698 1.13896 38.6284C1.20798 38.5589 1.29011 38.5037 1.38061 38.466C1.47111 38.4284 1.56818 38.4089 1.66623 38.4089H20.2977C21.3431 38.4089 22.3457 38.8237 23.085 39.5621C23.8242 40.3005 24.2395 41.302 24.2395 42.3463V62.3152C24.2395 63.1854 23.8934 64.02 23.2774 64.6353C22.6614 65.2506 21.8259 65.5963 20.9547 65.5963" fill="black"/>
<path d="M107.818 61.1074V44.3869C107.803 43.9464 107.617 43.5292 107.299 43.2231C106.982 42.917 106.558 42.746 106.116 42.7463C105.672 42.7496 105.246 42.9252 104.928 43.2362C104.611 43.5471 104.427 43.9692 104.415 44.4131V61.1074H107.818ZM108.56 74.711C108.363 74.7093 108.174 74.6297 108.035 74.4896C107.896 74.3495 107.818 74.1602 107.818 73.9629V65.5961H104.435V73.9629C104.435 74.1602 104.357 74.3495 104.218 74.4896C104.079 74.6297 103.89 74.7093 103.692 74.711H95.2043C95.0057 74.711 94.8152 74.6321 94.6747 74.4918C94.5343 74.3515 94.4554 74.1613 94.4554 73.9629V42.4116C94.4554 41.8863 94.5591 41.3661 94.7606 40.8808C94.962 40.3955 95.2573 39.9546 95.6295 39.5834C96.0017 39.2122 96.4436 38.918 96.9297 38.7176C97.4159 38.5171 97.9369 38.4144 98.4628 38.4153H113.796C114.322 38.4144 114.843 38.5172 115.328 38.7177C115.814 38.9183 116.256 39.2126 116.627 39.5838C116.999 39.9551 117.294 40.396 117.494 40.8813C117.695 41.3666 117.798 41.8866 117.797 42.4116V73.9629C117.798 74.0608 117.78 74.1579 117.743 74.2486C117.706 74.3394 117.651 74.4219 117.582 74.4914C117.513 74.561 117.431 74.6162 117.341 74.6539C117.25 74.6916 117.153 74.711 117.055 74.711H108.56Z" fill="black"/>
<path d="M124.728 70.2299C125.385 70.2299 125.786 69.9674 125.786 69.5015C125.786 69.0355 125.418 68.8452 124.741 68.8452H124.544V70.243L124.728 70.2299ZM127.271 73.1041H126.075L124.544 71.0698V73.1041H123.559V67.9659H124.59C125.97 67.9659 126.712 68.4778 126.712 69.4687C126.718 69.789 126.619 70.1024 126.43 70.3616C126.242 70.6209 125.974 70.8119 125.668 70.9058H125.609L127.271 73.1041Z" fill="black"/>
<path d="M125.123 75.0064H125.248C126.436 74.9881 127.568 74.4991 128.396 73.6468C129.223 72.7946 129.677 71.649 129.659 70.462C129.641 69.275 129.151 68.144 128.298 67.3176C127.445 66.4912 126.298 66.0372 125.11 66.0555H124.853C123.703 66.1425 122.63 66.6698 121.859 67.5275C121.087 68.3852 120.677 69.5071 120.714 70.6594C120.75 71.8117 121.23 72.9055 122.054 73.7128C122.878 74.5202 123.982 74.9789 125.136 74.9932M125.018 66.7117H125.195C126.182 66.7588 127.111 67.1896 127.784 67.9119C128.457 68.6343 128.821 69.5909 128.797 70.5775C128.774 71.5641 128.365 72.5023 127.658 73.1917C126.951 73.8812 126.002 74.2671 125.014 74.2671C124.026 74.2671 123.078 73.8812 122.371 73.1917C121.664 72.5023 121.255 71.5641 121.231 70.5775C121.208 69.5909 121.571 68.6343 122.245 67.9119C122.918 67.1896 123.847 66.7588 124.834 66.7117C124.895 66.7057 124.957 66.7057 125.018 66.7117Z" fill="black"/>
</svg>
