<svg width="132" height="35" viewBox="0 0 132 35" fill="none" xmlns="http://www.w3.org/2000/svg">
<path d="M9.14003 29.5173C5.27162 29.5173 2.36388 28.101 0.920288 26.777L0.735352 26.6026L2.89818 21.9842L3.23723 22.2458C4.90543 23.5788 6.9888 24.2852 9.12464 24.242C10.2908 24.242 11.981 23.7802 11.981 22.9489C11.981 22.2408 11.0511 21.9226 9.51508 21.5378L8.87291 21.3684C5.18944 20.4036 1.59328 19.1105 1.59328 14.9899C1.59328 10.8692 5.67235 8.55489 9.51508 8.55489C12.1345 8.49042 14.7166 9.18557 16.9488 10.5562L17.2211 10.7101L15.1918 15.2208L14.8682 15.0617C13.2362 14.2168 11.4301 13.7619 9.59212 13.7326C8.50814 13.7326 7.59369 14.1996 7.59369 14.7589C7.59369 15.5697 9.13492 15.8981 10.7326 16.2522C13.8613 16.986 17.9814 18.4588 17.9814 22.795C17.9814 27.4544 13.5325 29.5378 9.12464 29.5378" fill="black"/>
<path d="M30.2289 14.0654C27.7372 14.0654 25.9289 16.154 25.9289 19.0276C25.9289 21.9013 27.7372 23.9949 30.2289 23.9949C32.8797 23.9949 34.7292 21.9424 34.7292 19.0276C34.7292 16.1129 32.8797 14.0654 30.2289 14.0654ZM25.9649 34.7456H20.0312V8.92871H25.6823V10.7504C27.2911 9.27763 29.4087 8.48486 31.5903 8.53871C36.9023 8.53871 40.7604 12.9364 40.7604 18.9917C40.7604 25.0469 36.8714 29.5165 31.5132 29.5165C29.4649 29.5429 27.482 28.7971 25.9597 27.428L25.9649 34.7456Z" fill="black"/>
<path d="M49.0122 29.1259H43.0889V8.92809H48.9352V11.5863C50.0243 9.99035 52.1409 8.53809 55.4236 8.53809H55.7678V14.9269H55.4236C50.9901 14.9269 49.0122 16.8871 49.0122 21.2951V29.1259Z" fill="black"/>
<path d="M67.2947 14.0646C64.6849 14.0646 62.7944 16.1531 62.7944 19.0319C62.7944 21.9107 64.6849 23.9941 67.2947 23.9941C69.9044 23.9941 71.5946 21.9415 71.5946 19.0319C71.5946 16.1223 69.7863 14.0646 67.2947 14.0646ZM65.9641 29.5157C60.6521 29.5157 56.7939 25.1077 56.7939 19.0319C56.7939 12.9562 60.6521 8.53786 65.9641 8.53786C68.0945 8.49409 70.1576 9.28417 71.7128 10.7393V8.92786H77.518V29.1257H71.7128V27.3656C70.151 28.8044 68.0879 29.576 65.9641 29.5157Z" fill="black"/>
<path d="M99.3578 29.1267H93.4345V18.2118C93.4345 15.2766 92.6073 14.1836 90.3829 14.1836C87.9735 14.1836 86.3501 16.0874 86.3501 18.9149V29.1267H80.4268V8.92888H86.2371V10.9302C86.9847 10.1443 87.8902 9.52495 88.8942 9.11286C89.8981 8.70076 90.9779 8.50516 92.0628 8.53888C96.9741 8.53888 99.3578 11.4896 99.3578 17.5499V29.1267Z" fill="black"/>
<path d="M111.903 14.0661C109.298 14.0661 107.403 16.1547 107.403 19.0335C107.403 21.9123 109.298 23.9956 111.903 23.9956C114.508 23.9956 116.208 21.943 116.208 19.0335C116.208 16.1239 114.4 14.0661 111.903 14.0661ZM110.578 29.5172C105.26 29.5172 101.402 25.1092 101.402 19.0335C101.402 12.9577 105.296 8.53939 110.65 8.53939C112.692 8.51067 114.671 9.2424 116.203 10.592V2.75098H122.126V29.1118H116.475V27.3363C114.86 28.7901 112.746 29.5658 110.572 29.5018" fill="black"/>
<path d="M127.956 7.24051C127.273 7.23745 126.607 7.03211 126.04 6.65043C125.474 6.26875 125.034 5.72794 124.776 5.09637C124.518 4.4648 124.453 3.7709 124.589 3.10244C124.726 2.43398 125.058 1.821 125.543 1.3411C126.029 0.861202 126.646 0.535921 127.317 0.406433C127.987 0.276946 128.681 0.349055 129.311 0.61365C129.94 0.878245 130.477 1.32347 130.853 1.89291C131.229 2.46234 131.428 3.13043 131.424 3.81267C131.412 4.72424 131.042 5.59454 130.393 6.23581C129.744 6.87708 128.869 7.2379 127.956 7.24051ZM130.957 29.1266H125.033V8.92881H130.957V29.1266Z" fill="black"/>
</svg>
