<svg width="168" height="45" viewBox="0 0 168 45" fill="none" xmlns="http://www.w3.org/2000/svg">
<path d="M11.4569 37.7109C6.50996 37.7109 2.79155 35.8997 0.945482 34.2067L0.708984 33.9836L3.47481 28.0776L3.90839 28.4122C6.04168 30.1168 8.70589 31.0201 11.4372 30.9649C12.9285 30.9649 15.0899 30.3744 15.0899 29.3113C15.0899 28.4057 13.9008 27.9988 11.9365 27.5067L11.1153 27.2901C6.40487 26.0564 1.8061 24.4027 1.8061 19.1332C1.8061 13.8638 7.02242 10.9042 11.9365 10.9042C15.2863 10.8217 18.5882 11.7107 21.4427 13.4635L21.791 13.6603L19.1959 19.4285L18.7821 19.225C16.695 18.1446 14.3854 17.5629 12.035 17.5255C10.6488 17.5255 9.47943 18.1226 9.47943 18.8379C9.47943 19.8747 11.4503 20.2947 13.4935 20.7475C17.4944 21.6859 22.7632 23.5693 22.7632 29.1144C22.7632 35.0729 17.074 37.7372 11.4372 37.7372" fill="black"/>
<path d="M38.4255 17.9517C35.2392 17.9517 32.9267 20.6225 32.9267 24.2974C32.9267 27.9722 35.2392 30.6496 38.4255 30.6496C41.8154 30.6496 44.1805 28.0247 44.1805 24.2974C44.1805 20.5701 41.8154 17.9517 38.4255 17.9517ZM32.9727 44.3975H25.3848V11.3829H32.6114V13.7125C34.6687 11.8291 37.3766 10.8153 40.1664 10.8842C46.9594 10.8842 51.8932 16.508 51.8932 24.2514C51.8932 31.9949 46.92 37.7106 40.0679 37.7106C37.4486 37.7443 34.9128 36.7906 32.9661 35.0398L32.9727 44.3975Z" fill="black"/>
<path d="M62.4449 37.212H54.8701V11.383H62.3464V14.7823C63.7391 12.7414 66.4458 10.8843 70.6438 10.8843H71.084V19.0543H70.6438C64.9742 19.0543 62.4449 21.561 62.4449 27.198V37.212Z" fill="black"/>
<path d="M85.8248 17.9521C82.4874 17.9521 80.0698 20.6229 80.0698 24.3043C80.0698 27.9858 82.4874 30.65 85.8248 30.65C89.1622 30.65 91.3236 28.0251 91.3236 24.3043C91.3236 20.5836 89.0111 17.9521 85.8248 17.9521ZM84.1233 37.7109C77.3303 37.7109 72.3965 32.074 72.3965 24.3043C72.3965 16.5347 77.3303 10.8845 84.1233 10.8845C86.8477 10.8286 89.486 11.8389 91.4747 13.6998V11.3833H98.8984V37.2122H91.4747V34.9614C89.4775 36.8014 86.8392 37.7882 84.1233 37.7109Z" fill="black"/>
<path d="M126.827 37.2113H119.252V23.2535C119.252 19.4999 118.195 18.1021 115.35 18.1021C112.269 18.1021 110.193 20.5367 110.193 24.1525V37.2113H102.618V11.3824H110.048V13.9417C111.005 12.9366 112.162 12.1447 113.446 11.6177C114.73 11.0907 116.111 10.8406 117.498 10.8837C123.779 10.8837 126.827 14.657 126.827 22.407V37.2113Z" fill="black"/>
<path d="M142.87 17.9522C139.539 17.9522 137.115 20.623 137.115 24.3045C137.115 27.9859 139.539 30.6501 142.87 30.6501C146.201 30.6501 148.375 28.0252 148.375 24.3045C148.375 20.5837 146.063 17.9522 142.87 17.9522ZM141.175 37.7111C134.375 37.7111 129.441 32.0741 129.441 24.3045C129.441 16.5348 134.421 10.8846 141.267 10.8846C143.878 10.8479 146.41 11.7837 148.368 13.5095V3.48242H155.943V37.1926H148.717V34.9221C146.651 36.7813 143.947 37.7732 141.168 37.6913" fill="black"/>
<path d="M163.399 9.22387C162.525 9.21996 161.673 8.95737 160.949 8.46928C160.225 7.98119 159.662 7.2896 159.332 6.48195C159.002 5.67429 158.918 4.78694 159.093 3.93211C159.268 3.07729 159.692 2.2934 160.313 1.67971C160.934 1.06601 161.723 0.650045 162.581 0.484457C163.438 0.318868 164.326 0.411081 165.131 0.749445C165.936 1.08781 166.622 1.65716 167.104 2.38536C167.585 3.11356 167.839 3.96791 167.833 4.84035C167.818 6.00607 167.344 7.11901 166.515 7.93906C165.685 8.75912 164.566 9.22053 163.399 9.22387ZM167.236 37.2118H159.661V11.3829H167.236V37.2118Z" fill="black"/>
</svg>
