<svg width="273" height="52" viewBox="0 0 273 52" fill="none" xmlns="http://www.w3.org/2000/svg">
<path d="M203.312 16.7948C200.625 16.7226 198.556 15.0756 198.714 13.1003C198.714 11.1317 200.934 9.60265 203.49 9.72077C206.196 9.72077 208.266 11.3744 208.259 13.4087C208.102 15.3052 205.901 16.8473 203.332 16.7948" fill="black"/>
<path d="M265.623 12.3552C266.083 12.3552 266.49 12.3552 266.49 11.7712C266.49 11.3315 266.089 11.2462 265.715 11.2462H264.979V12.3552H265.623ZM264.966 14.3239H264.421V10.7606H265.781C266.621 10.7606 267.042 11.069 267.042 11.7712C267.049 11.8973 267.03 12.0236 266.987 12.1424C266.944 12.2611 266.877 12.3698 266.79 12.4619C266.704 12.554 266.599 12.6275 266.483 12.678C266.367 12.7284 266.242 12.7548 266.116 12.7555L267.134 14.3239H266.529L265.583 12.7818H264.966V14.3239ZM265.623 15.1179C266.136 15.1309 266.641 14.991 267.074 14.716C267.507 14.441 267.848 14.0433 268.054 13.5737C268.26 13.1041 268.321 12.584 268.229 12.0797C268.137 11.5753 267.897 11.1097 267.54 10.7422C267.182 10.3747 266.723 10.1219 266.221 10.0162C265.719 9.91053 265.197 9.95668 264.721 10.1488C264.245 10.3409 263.837 10.6703 263.55 11.0948C263.262 11.5194 263.108 12.0199 263.107 12.5324C263.094 12.8692 263.15 13.205 263.271 13.5195C263.392 13.8341 263.576 14.1208 263.811 14.3625C264.047 14.6041 264.328 14.7957 264.64 14.9256C264.951 15.0554 265.285 15.1208 265.623 15.1179ZM262.483 12.5324C262.477 11.9125 262.657 11.305 262.997 10.7869C263.338 10.2689 263.825 9.86363 264.397 9.6225C264.969 9.38136 265.6 9.31522 266.209 9.43249C266.818 9.54976 267.379 9.84516 267.82 10.2812C268.262 10.7172 268.563 11.2742 268.687 11.8817C268.811 12.4892 268.751 13.1197 268.516 13.6933C268.28 14.2669 267.88 14.7578 267.365 15.1037C266.85 15.4496 266.243 15.635 265.623 15.6363C265.212 15.6424 264.803 15.5666 264.422 15.4132C264.04 15.2597 263.693 15.0318 263.4 14.7428C263.108 14.4538 262.876 14.1095 262.719 13.73C262.561 13.3504 262.481 12.9433 262.483 12.5324Z" fill="black"/>
<path d="M73.4017 32.1929C71.0301 34.4175 69.0001 35.369 67.246 33.7285C66.3328 32.7835 64.9072 32.5932 65.0911 16.8045C65.0911 11.1676 64.9138 12.8671 65.3999 7.72889C65.6496 5.56335 66.4511 6.10806 68.4811 5.88494C72.298 5.47152 72.1666 6.30494 72.1732 8.19486C72.1075 8.19486 72.1732 10.4195 72.0155 12.9591C71.8776 16.0958 72.2192 25.6569 72.1732 25.7291C72.2192 25.6569 72.0221 26.8119 73.2441 25.5782C74.6105 24.0755 79.0056 19.6197 80.786 19.8822C83.7095 20.1446 85.3387 28.1375 87.4082 27.8816C88.2754 27.8488 89.3397 27.0941 90.9426 25.9129C92.3094 24.8385 93.7495 23.8605 95.2523 22.9861C97.1772 21.5161 102.387 19.6328 104.332 19.6066C105.521 19.6066 106.302 20.1709 106.184 20.8337C106.132 22.3562 100.449 22.2183 100.488 27.6059C100.484 27.9306 100.568 28.2503 100.732 28.5311C100.895 28.812 101.131 29.0434 101.415 29.2009C101.7 29.3584 102.021 29.436 102.346 29.4255C102.671 29.4151 102.987 29.3169 103.261 29.1415C106.657 27.4353 105.278 24.9679 106.027 23.4521C106.279 22.9668 106.699 22.5895 107.209 22.3903C107.719 22.1912 108.284 22.1837 108.799 22.3693C110.842 23.3995 112.57 27.6978 113.72 27.9078C115.034 28.1374 117.123 25.0204 119.264 23.1436C121.235 21.4046 122.549 19.9019 123.863 19.9084C125.177 19.915 126.379 21.0634 127.095 22.0674C127.811 23.0715 130.117 26.4182 130.794 26.3722C131.556 26.4641 134.42 21.8509 135.255 20.9846C135.958 20.23 136.766 19.7116 137.41 19.7575C139.078 19.7116 139.381 20.4662 140.333 21.2931C141.575 22.5136 143.506 26.405 144.485 26.3722C145.03 26.4575 146.706 23.557 147.717 22.5268C148.729 21.4965 150.004 19.7444 151.258 19.7575C152.513 19.7706 153.38 20.9978 154.491 22.2184C157.119 24.7514 159.089 27.7503 160.338 27.7568C161.586 27.6387 164.601 24.4757 165.725 22.5071C167.393 19.2981 167.078 19.5606 169.266 19.4294C173.109 19.2785 172.452 20.7419 172.498 21.5818C172.354 23.5505 172.281 25.342 172.649 25.5848C173.208 25.8407 174.876 20.0725 183.266 19.7378C185.742 19.6919 190.249 21.4768 190.039 25.2763C189.914 28.459 188.029 29.299 188.81 29.5812C191.662 30.2374 198.711 25.1648 198.809 23.7342C198.961 21.818 198.494 19.8953 199.887 19.7378C202.184 19.358 204.533 19.4092 206.811 19.8887C208.533 20.1053 206.411 29.3384 208.197 29.5812C212.172 29.8765 219.734 21.6146 220.68 20.814C222.927 18.8454 226.119 18.76 227.295 18.6616C228.576 18.5632 229.595 19.1209 229.45 19.8887C229.049 21.2865 224.497 20.8666 224.523 26.5035C224.523 27.5928 225.318 29.4368 226.369 29.7386C227.42 30.0405 228.524 29.404 228.997 27.77C230.114 24.5479 228.997 24.0426 228.682 22.9992C228.025 21.1224 230.087 21.4374 232.229 21.3062C235.186 21.1618 242.741 19.6131 243.457 19.4622C244.057 19.2707 244.702 19.2707 245.303 19.4622C246.617 19.9806 247.523 22.4217 247.766 23.1567C248.009 23.8917 248.331 25.0007 248.844 25.0007C249.553 24.876 249.685 24.6004 250.539 23.6161C251.393 22.6318 254.224 19.3965 256.235 19.4622C259.257 19.6262 261.267 25.552 264.079 27.1532C265.774 28.19 269.275 25.4338 270.083 24.8432C270.74 24.3314 272.921 23.7998 272.711 25.6175C272.521 26.8447 269.584 30.1455 267.173 31.7729C265.071 33.0854 263.074 34.4503 260.866 34.3978C257.351 34.2141 254.875 27.7503 253.324 27.4747C252.102 27.1335 247.037 36.6618 244.245 34.0894C240.796 31.1298 239.331 23.5308 238.549 23.6292C237.515 23.6436 236.484 23.7467 235.468 23.9377C235.041 24.1083 235.599 25.0663 235.934 27.1662C236.453 29.6533 234.049 36.5175 223.774 34.7063C216.961 33.4857 217.605 28.4393 217.158 29.0168C214.563 31.8583 209.761 34.5816 205.156 34.5553C197.174 34.5553 199.348 28.3934 198.691 29.0168C197.121 30.3949 191.734 34.68 185.453 34.5553C180.198 34.3125 177.169 32.6851 177.143 31.0118C177.143 30.2899 179.002 31.3333 180.684 30.4014C183.18 29.0562 183.489 25.2567 181.761 24.8564C180.625 24.6333 177.379 24.8958 174.377 31.0118C173.546 32.7014 173.026 34.5261 172.84 36.3993C171.999 46.1049 173.812 50.18 172.531 50.7049C171.349 51.3288 170.012 51.5977 168.681 51.4793C166.71 51.3809 166.71 50.495 166.375 46.2295C165.718 34.7259 166.224 29.1677 166.066 28.5115C165.731 27.7962 161.586 34.5094 155.759 34.516C153.203 34.5553 149.452 28.0915 148.677 28.3606C147.625 28.5706 144.472 34.621 142.212 34.6669C138.927 34.6669 136.628 28.2031 135.439 28.2031C134.598 28.2031 130.709 34.5356 128.363 34.6669C125.078 34.8047 122.963 28.3081 121.281 27.8947C120.105 27.5272 114.712 34.5422 111.282 34.8178C108.457 34.9162 107.176 30.8805 106.815 31.2808C104.61 33.3983 101.716 34.6537 98.662 34.8178C95.5217 34.7522 92.7953 33.2823 92.5062 29.7452C92.5062 29.299 92.204 29.5943 91.7376 30.0536C90.8507 30.6442 86.4819 34.5947 83.7292 34.6472C78.4735 34.7259 78.237 28.2949 76.6537 28.4918C76.1807 28.5509 73.7039 32.0092 73.4214 32.1863" fill="black"/>
<path d="M61.3993 26.7918C60.8541 26.3915 60.046 28.3864 46.6242 31.3853C45.1789 31.7331 41.789 31.884 41.7167 31.93V6.6129L45.56 7.22972C58.0423 9.85461 58.5021 11.2589 59.1066 10.6159C60.0657 9.48715 54.9086 -1.11742 28.019 0.116277C17.4222 0.706878 1.50401 7.18382 0.47258 18.4249C-0.184383 25.7615 7.58092 38.3872 31.0936 38.5841C48.6871 38.7547 56.8663 32.0219 59.2577 29.6595C60.7752 28.1436 61.8855 27.1199 61.4125 26.7393M23.4006 31.661C23.0327 32.0022 22.7436 31.8644 22.0144 31.8119C16.555 31.2213 6.14217 28.6292 6.01078 18.7333C6.01078 16.4956 7.94225 8.74561 22.3232 6.42914C23.2626 6.32415 23.5386 6.731 23.5517 7.81376C23.5517 9.03434 23.5517 30.342 23.5517 30.2764C23.5517 30.342 23.6437 31.3919 23.4006 31.661Z" fill="black"/>
</svg>
