<svg width="93" height="31" viewBox="0 0 93 31" fill="none" xmlns="http://www.w3.org/2000/svg">
<g clip-path="url(#clip0_107_6)">
<mask id="mask0_107_6" style="mask-type:luminance" maskUnits="userSpaceOnUse" x="0" y="0" width="93" height="31">
<path d="M0.540039 30.2059H92.3866V0.713867H0.540039V30.2059Z" fill="white"/>
</mask>
<g mask="url(#mask0_107_6)">
<path d="M30.0984 26.2627L30.0092 4.64853C30.0013 4.13575 30.0978 3.62652 30.2932 3.15037C30.4886 2.67423 30.7791 2.24063 31.1477 1.87472C31.5164 1.50876 31.956 1.2178 32.4409 1.0187C32.9258 0.819592 33.4465 0.716311 33.9727 0.714844H34.4045C34.9345 0.714557 35.4594 0.816115 35.9492 1.01371C36.4389 1.21131 36.8839 1.50107 37.2587 1.86642C37.6334 2.23176 37.9306 2.66552 38.1333 3.1429C38.3359 3.62027 38.44 4.1319 38.4397 4.64853L38.5292 26.2627C38.5295 26.7794 38.4253 27.291 38.2226 27.7684C38.0199 28.2457 37.7227 28.6795 37.3479 29.0448C36.9731 29.4101 36.5281 29.6998 36.0383 29.8973C35.5486 30.0949 35.0237 30.1964 34.4936 30.1961H34.0337C33.5091 30.194 32.9901 30.0902 32.507 29.8906C32.024 29.6909 31.5866 29.3996 31.2202 29.0335C30.8539 28.6673 30.5661 28.2338 30.3735 27.7581C30.1809 27.2824 30.0874 26.774 30.0984 26.2627Z" fill="black"/>
<path d="M81.0362 3.26874L90.001 17.4941C91.939 20.5669 92.386 21.3662 92.386 23.6293C92.386 27.1998 89.0656 29.9386 86.1245 29.9386H74.0096C71.8055 29.9386 70.0199 28.4448 70.0199 26.296V26.0475C70.0199 25.0162 70.4403 24.0271 71.1884 23.2978C71.9365 22.5685 72.9512 22.1587 74.0092 22.1585L81.4373 22.1564C81.9039 22.1564 82.1895 22.0969 82.3161 21.8119C82.3832 21.6758 82.4077 21.5233 82.3864 21.3736C82.365 21.2239 82.2989 21.0837 82.1962 20.9705L76.9052 12.7017C76.8223 12.5636 76.7202 12.3725 76.5563 12.3725C76.4038 12.3725 76.2706 12.5636 76.1989 12.7126L68.121 26.226C66.863 28.3701 65.383 29.9365 63.1785 29.9365H47.6452C44.7041 29.9365 41.7393 27.106 41.7393 24.1818V4.63491C41.7394 3.60298 42.16 2.61335 42.9086 1.8837C43.6572 1.15405 44.6725 0.744141 45.7312 0.744141H46.2414C47.2993 0.744332 48.3139 1.15404 49.062 1.88317C49.8101 2.61231 50.2305 3.60119 50.2308 4.63239V20.603C50.2261 20.7434 50.251 20.8832 50.304 21.0138C50.3571 21.1444 50.4371 21.263 50.5391 21.3622C50.6411 21.4614 50.7629 21.5392 50.897 21.5906C51.0311 21.642 51.1746 21.666 51.3186 21.6612H59.0342C60.388 21.6612 61.2057 21.1851 61.9143 20.0353L72.2939 3.26874C72.7413 2.5096 73.3896 1.88151 74.1712 1.45009C74.9527 1.01868 75.8388 0.799784 76.7368 0.816272C78.5498 0.816272 79.9814 1.61513 81.0362 3.26874Z" fill="black"/>
<path d="M10.1175 19.8159C9.97454 19.8159 9.83299 19.8434 9.70097 19.8968C9.56895 19.9502 9.44906 20.0286 9.34819 20.1273C9.24731 20.226 9.16745 20.3432 9.11317 20.4721C9.05889 20.601 9.03128 20.7391 9.03191 20.8784L9.02932 26.3157C9.02947 26.8266 8.92631 27.3326 8.72576 27.8047C8.5252 28.2767 8.23117 28.7056 7.86048 29.0668C7.48979 29.4281 7.04969 29.7146 6.56535 29.9099C6.08102 30.1053 5.56193 30.2057 5.03776 30.2054H4.52975C4.00571 30.2055 3.48678 30.105 3.00261 29.9096C2.51844 29.7142 2.07853 29.4276 1.70801 29.0664C1.33749 28.7052 1.04364 28.2763 0.843229 27.8043C0.642822 27.3324 0.539796 26.8265 0.540039 26.3157L0.54226 16.4214C0.533191 15.8108 0.64986 15.2047 0.885361 14.6388C1.12086 14.0729 1.47041 13.5589 1.91333 13.127C2.35625 12.6951 2.88354 12.3542 3.46399 12.1245C4.04444 11.8948 4.66628 11.7809 5.29269 11.7895H21.5065C22.5641 11.7897 23.5784 12.1992 24.3265 12.928C25.0745 13.6569 25.4951 14.6454 25.4958 15.6763V15.9288C25.4956 16.9598 25.0753 17.9485 24.3273 18.6775C23.5793 19.4064 22.5649 19.8159 21.5072 19.8159H10.1175Z" fill="black"/>
<path d="M4.57661 1.27433H23.4651C23.9912 1.2666 24.5136 1.36073 25.0021 1.55127C25.4905 1.74182 25.9353 2.02498 26.3107 2.38435C26.686 2.74371 26.9845 3.17213 27.1887 3.64477C27.3929 4.1174 27.4988 4.62485 27.5003 5.13769V5.38582C27.5003 5.90225 27.3959 6.41362 27.1931 6.89072C26.9903 7.36781 26.693 7.80127 26.3183 8.16634C25.9436 8.53141 25.4987 8.82094 25.0092 9.01837C24.5196 9.2158 23.9949 9.31727 23.4651 9.31699H4.57661C4.04677 9.31732 3.52205 9.21588 3.03245 9.01847C2.54284 8.82106 2.09794 8.53155 1.72317 8.16647C1.3484 7.80139 1.0511 7.36791 0.848257 6.8908C0.645418 6.41368 0.541016 5.90228 0.541016 5.38582V5.11172C0.542713 4.60011 0.648987 4.09395 0.85363 3.62281C1.05827 3.15168 1.35718 2.72502 1.73289 2.36776C2.10861 2.0105 2.55359 1.7298 3.04185 1.54206C3.53011 1.35432 4.05185 1.26331 4.57661 1.27433Z" fill="black"/>
</g>
</g>
<defs>
<clipPath id="clip0_107_6">
<rect width="91.8466" height="29.492" fill="white" transform="translate(0.540039 0.713867)"/>
</clipPath>
</defs>
</svg>
