<svg width="119" height="59" viewBox="0 0 119 59" fill="none" xmlns="http://www.w3.org/2000/svg">
<path d="M63.8923 0.401601C63.5122 0.458048 63.1423 1.87946 62.3973 2.61327C61.8477 3.12642 61.1798 3.12643 60.8048 3.77814C60.6763 4.01932 60.7174 4.44521 60.5736 4.83521C60.2551 5.646 59.1968 5.72812 59.1865 6.59022C59.1865 7.54983 60.0804 7.73458 60.8561 8.40168C61.4778 8.91483 61.5189 9.31511 62.2432 9.56655C62.8854 9.78721 63.8204 9.09442 64.6475 9.34587C65.3359 9.55113 66.0038 9.69485 66.1527 10.4081C66.3017 11.1214 66.1528 12.0656 65.3 11.9476C64.326 11.6881 63.3152 11.5944 62.31 11.6705C60.5017 11.8655 58.4313 12.4504 58.231 14.4671C58.1282 15.5961 59.5153 16.9149 60.8664 16.6532C61.7911 16.4736 61.3545 15.3754 61.8631 14.8469C62.5258 14.1644 66.2863 17.2279 69.7848 17.2279C70.472 17.2632 71.1583 17.1431 71.7925 16.8765C72.4267 16.61 72.9925 16.2038 73.4478 15.6885C73.5454 15.6166 73.6789 15.4371 73.8331 15.4165C74.0074 15.4611 74.1726 15.5357 74.3211 15.6372C77.1467 17.895 79.2735 22.4365 89.6304 22.4878C91.311 22.5821 92.9013 23.278 94.1102 24.4481C95.3072 25.536 96.0161 27.2807 96.7045 29.0665C97.732 31.7195 99.602 34.2801 102.428 37.1384C102.576 37.3077 104.899 39.1038 105.073 39.2372C105.191 39.429 105.236 39.6564 105.202 39.8786C105.155 41.6182 104.899 46.6061 108.618 46.8165C109.527 46.8627 109.301 46.2315 109.301 45.7902C109.301 44.9332 109.142 44.0609 109.584 43.1731C110.216 41.9621 108.269 41.3822 108.315 38.7446C108.361 36.774 106.702 37.1076 105.859 35.5989C105.381 34.7368 104.935 34.2596 104.981 33.2179C105.161 27.2191 103.691 23.2729 102.972 22.3133C102.407 21.5744 101.914 21.287 102.458 20.9586C105.541 18.906 106.265 16.9919 106.265 16.9919C107.919 13.1124 109.404 9.57166 111.454 8.0014C112.121 7.47241 112.831 6.99872 113.576 6.58509C115.487 5.67167 116.504 5.13287 117.043 4.60431C117.932 3.75248 118.631 1.95129 117.778 0.873664C117.625 0.667438 117.425 0.500741 117.194 0.387382C116.964 0.274023 116.709 0.217273 116.452 0.221947H116.422C115.594 0.314263 114.802 0.608593 114.115 1.07894C108.407 4.46577 107.57 10.4389 105.582 13.8668C104.041 16.607 101.472 18.6237 99.1396 18.7828C97.278 18.8857 95.4193 18.5334 93.7249 17.7565C90.9538 16.5328 88.4066 14.8556 86.1884 12.7943C84.976 11.8654 75.626 2.67999 68.0125 2.30539C68.0125 2.30539 67.0826 0.416976 66.8514 0.381055C66.2915 0.319476 65.7212 1.52024 65.3102 1.6434C64.8992 1.76655 64.2828 0.35537 63.8975 0.416948" fill="black"/>
<path d="M30.4795 55.2276C30.1314 55.2224 29.7988 55.0826 29.5517 54.8376C29.3045 54.5927 29.162 54.2616 29.1541 53.9139V30.8219C29.1528 30.6685 29.0912 30.5218 28.9826 30.4133C28.874 30.3049 28.7271 30.2433 28.5736 30.242H21.9413C21.7868 30.242 21.6386 30.303 21.529 30.4116C21.4193 30.5202 21.357 30.6676 21.3556 30.8219V55.7305C21.357 56.4985 21.6634 57.2346 22.2076 57.7773C22.7518 58.3199 23.4893 58.6247 24.2582 58.6247H36.7214C37.4899 58.6247 38.2268 58.3197 38.7702 57.7769C39.3136 57.2342 39.6189 56.498 39.6189 55.7305V30.8219C39.6175 30.6676 39.5552 30.5202 39.4455 30.4116C39.3358 30.303 39.1876 30.242 39.0332 30.242H32.3855C32.2319 30.2433 32.0851 30.3049 31.9765 30.4133C31.8679 30.5218 31.8063 30.6685 31.805 30.8219V53.9139C31.7945 54.2607 31.6512 54.5904 31.4046 54.8348C31.158 55.0793 30.8269 55.2198 30.4795 55.2276Z" fill="black"/>
<path d="M56.5869 30.2618H45.3823C44.9735 30.2618 44.5687 30.3422 44.191 30.4985C43.8133 30.6548 43.47 30.8838 43.181 31.1726C42.8919 31.4613 42.6626 31.8042 42.5061 32.1814C42.3496 32.5587 42.2691 32.9631 42.2691 33.3715V58.0645C42.2705 58.2179 42.332 58.3646 42.4406 58.4731C42.5492 58.5815 42.6961 58.6431 42.8496 58.6444H49.4871C49.6406 58.6431 49.7875 58.5815 49.8961 58.4731C50.0047 58.3646 50.0663 58.2179 50.0676 58.0645V34.9315C50.0769 34.5847 50.2211 34.2553 50.4695 34.0129C50.7179 33.7706 51.051 33.6344 51.3982 33.6332C51.7452 33.6305 52.0793 33.7648 52.3276 34.0071C52.5758 34.2493 52.7182 34.5797 52.7236 34.9263V58.0645C52.7249 58.2179 52.7865 58.3646 52.8951 58.4731C53.0037 58.5815 53.1506 58.6431 53.3041 58.6444H59.921C60.0746 58.6431 60.2214 58.5815 60.33 58.4731C60.4386 58.3646 60.5002 58.2179 60.5015 58.0645V34.9263C60.5029 34.7547 60.5381 34.5851 60.6053 34.4271C60.6724 34.2692 60.7701 34.126 60.8928 34.0059C61.0155 33.8857 61.1607 33.7909 61.3201 33.727C61.4795 33.663 61.65 33.6312 61.8218 33.6332C62.1698 33.6318 62.5044 33.7672 62.7534 34.0101C63.0023 34.253 63.1457 34.5839 63.1524 34.9315V58.0645C63.1538 58.2188 63.2161 58.3662 63.3257 58.4748C63.4354 58.5834 63.5836 58.6444 63.7381 58.6444H70.3704C70.4483 58.6472 70.526 58.6342 70.5988 58.6063C70.6717 58.5784 70.7381 58.5361 70.7942 58.482C70.8503 58.4279 70.8949 58.363 70.9254 58.2912C70.9558 58.2195 70.9715 58.1424 70.9714 58.0645V33.3664C70.9647 32.5519 70.6378 31.7726 70.0612 31.1966C69.4846 30.6206 68.7045 30.2941 67.889 30.2874L56.5869 30.2618Z" fill="black"/>
<path d="M10.9213 34.9779C10.9213 34.6249 10.7813 34.2863 10.5319 34.0363C10.2825 33.7862 9.9441 33.645 9.59074 33.6436H8.25503V48.012H9.59074C9.76702 48.0113 9.94142 47.9758 10.1039 47.9075C10.2664 47.8392 10.4137 47.7394 10.5374 47.614C10.6611 47.4885 10.7587 47.3399 10.8246 47.1765C10.8905 47.0132 10.9233 46.8385 10.9213 46.6624V34.9779ZM16.1563 51.5117H8.83555C8.682 51.5131 8.53512 51.5746 8.42654 51.6831C8.31796 51.7915 8.25637 51.9382 8.25503 52.0916V58.0648C8.25369 58.2181 8.1921 58.3648 8.08352 58.4733C7.97494 58.5817 7.82806 58.6433 7.67451 58.6446H1.04734C0.893378 58.6446 0.745723 58.5835 0.636854 58.4747C0.527986 58.366 0.46682 58.2185 0.46682 58.0648V30.8418C0.466141 30.7652 0.480656 30.6893 0.509526 30.6183C0.538396 30.5474 0.581054 30.4828 0.635028 30.4284C0.689002 30.3741 0.753225 30.3309 0.823994 30.3015C0.894763 30.272 0.970672 30.2568 1.04734 30.2568H15.6168C16.4343 30.2568 17.2184 30.5812 17.7964 31.1586C18.3745 31.736 18.6992 32.5192 18.6992 33.3357V48.9511C18.6992 49.6316 18.4286 50.2842 17.9469 50.7654C17.4652 51.2466 16.8118 51.5169 16.1306 51.5169" fill="black"/>
<path d="M84.0562 48.0066V34.9315C84.0442 34.587 83.8988 34.2608 83.6505 34.0214C83.4023 33.7821 83.0707 33.6484 82.7257 33.6486C82.378 33.6511 82.0449 33.7884 81.7966 34.0316C81.5484 34.2748 81.4044 34.6048 81.3951 34.952V48.0066H84.0562ZM84.6367 58.6444C84.4823 58.6431 84.3347 58.5808 84.2259 58.4713C84.1172 58.3617 84.0562 58.2137 84.0562 58.0594V51.5167H81.4105V58.0594C81.4105 58.2137 81.3495 58.3617 81.2408 58.4713C81.132 58.5808 80.9844 58.6431 80.83 58.6444H74.1925C74.0372 58.6444 73.8882 58.5827 73.7784 58.473C73.6686 58.3633 73.6069 58.2146 73.6069 58.0594V33.3869C73.6069 32.976 73.688 32.5693 73.8455 32.1898C74.0031 31.8103 74.234 31.4655 74.525 31.1753C74.8161 30.885 75.1616 30.6549 75.5418 30.4982C75.922 30.3414 76.3294 30.2611 76.7406 30.2618H88.7312C89.1423 30.2611 89.5494 30.3415 89.9293 30.4983C90.3092 30.6551 90.6543 30.8852 90.945 31.1756C91.2356 31.4659 91.4661 31.8107 91.6231 32.1902C91.78 32.5696 91.8605 32.9763 91.8598 33.3869V58.0594C91.8605 58.136 91.846 58.2119 91.8171 58.2829C91.7883 58.3538 91.7456 58.4183 91.6916 58.4727C91.6377 58.5271 91.5734 58.5703 91.5027 58.5998C91.4319 58.6292 91.356 58.6444 91.2793 58.6444H84.6367Z" fill="black"/>
<path d="M97.2797 55.1402C97.7934 55.1402 98.1068 54.935 98.1068 54.5706C98.1068 54.2063 97.8191 54.0575 97.29 54.0575H97.1359V55.1505L97.2797 55.1402ZM99.2679 57.3879H98.3329L97.1359 55.7971V57.3879H96.3653V53.3699H97.1718C98.2507 53.3699 98.8312 53.7702 98.8312 54.545C98.8355 54.7955 98.7582 55.0406 98.6108 55.2433C98.4635 55.446 98.2541 55.5954 98.0144 55.6688H97.9681L99.2679 57.3879Z" fill="black"/>
<path d="M97.5883 58.8754H97.6859C98.6151 58.8611 99.5006 58.4787 100.148 57.8122C100.795 57.1458 101.15 56.2499 101.136 55.3218C101.121 54.3936 100.738 53.5091 100.071 52.8629C99.4041 52.2167 98.5072 51.8617 97.578 51.8759H97.3777C96.4777 51.944 95.6388 52.3563 95.0357 53.027C94.4325 53.6977 94.1118 54.575 94.1403 55.4761C94.1688 56.3772 94.5443 57.2325 95.1885 57.8639C95.8328 58.4952 96.6961 58.8539 97.5986 58.8651M97.5061 52.3891H97.6448C98.4165 52.4259 99.1431 52.7628 99.6695 53.3277C100.196 53.8925 100.48 54.6406 100.462 55.4121C100.443 56.1836 100.124 56.9173 99.5708 57.4564C99.018 57.9955 98.2761 58.2973 97.5035 58.2973C96.731 58.2973 95.989 57.9955 95.4363 57.4564C94.8835 56.9173 94.5637 56.1836 94.5453 55.4121C94.5268 54.6406 94.8111 53.8925 95.3375 53.3277C95.8639 52.7628 96.5906 52.4259 97.3622 52.3891C97.4101 52.3844 97.4583 52.3844 97.5061 52.3891Z" fill="black"/>
</svg>
