<svg width="144" height="32" viewBox="0 0 144 32" fill="none" xmlns="http://www.w3.org/2000/svg">
<path d="M122.851 0.403642H129.628V11.8008H132.299C134.94 11.5801 136.332 8.85531 136.255 5.98164H142.933C142.969 11.0465 141.68 13.3711 138.048 14.7669C139.517 15.28 143.129 16.8195 143.129 22.4642V26.359H136.383V22.2538C136.383 20.4064 134.667 17.5738 131.621 17.6918H129.622V26.3642H122.851V0.403642Z" fill="black"/>
<path d="M109.571 21.3921C110.223 21.3775 110.865 21.2346 111.461 20.9718C112.057 20.709 112.596 20.3313 113.046 19.8604C113.496 19.3896 113.848 18.8347 114.083 18.2275C114.319 17.6204 114.431 16.9729 114.416 16.3222C114.429 15.6739 114.315 15.0294 114.078 14.4255C113.842 13.8216 113.489 13.2702 113.039 12.803C112.589 12.3358 112.051 11.9619 111.456 11.7028C110.861 11.4437 110.22 11.3046 109.571 11.2932C108.921 11.3039 108.279 11.4425 107.683 11.7011C107.086 11.9597 106.547 12.3332 106.095 12.8003C105.643 13.2674 105.288 13.8188 105.05 14.4231C104.811 15.0275 104.695 15.6728 104.706 16.3222C104.679 17.6388 105.176 18.9125 106.088 19.8632C107 20.8139 108.253 21.3639 109.571 21.3921ZM98.0276 16.3632C98.0276 10.467 102.22 5.67419 109.571 5.67419C116.923 5.67419 121.135 10.467 121.135 16.3632C121.135 22.2594 116.748 27.0573 109.571 27.0573C102.703 27.0573 98.0276 22.2747 98.0276 16.3632Z" fill="black"/>
<path d="M87.1466 5.99209H82.5847V11.9036H85.8315C87.8864 11.9036 89.6434 13.7767 89.6434 16.132C89.6434 18.9801 87.4806 20.3912 85.9291 20.422H81.1565V0.378133H74.4061V26.3592H85.8983C90.7479 26.3592 96.4452 22.5824 96.4452 16.3527C96.4452 10.123 91.9141 5.97154 87.1466 5.97154" fill="black"/>
<path d="M26.1718 9.13781C26.1718 3.32889 20.942 0.0292969 16.3646 0.0292969H0.865234V26.3747H7.43076V6.11531H15.0289C17.2893 6.11531 19.2312 7.39818 19.2312 10.395C19.2312 12.8274 17.6489 14.5003 15.4912 14.6029H9.32644V20.4375H13.2873C16.5444 20.5863 18.2449 22.0129 18.2808 25.8256V31.8911H25.134V24.0193C25.134 20.5453 22.3547 18.4515 20.68 17.6202L20.6543 17.574L20.7057 17.5227C24.2196 16.2193 26.1718 12.9557 26.1718 9.11212" fill="black"/>
<path d="M60.6224 20.4675C59.5136 20.4393 58.4614 19.9728 57.6967 19.1704C56.9319 18.368 56.5171 17.2954 56.5433 16.1878C56.5157 15.0774 56.9292 14.0012 57.6936 13.1945C58.4579 12.3877 59.5109 11.916 60.6224 11.8824H65.1176L61.0539 18.9742H67.6246L71.8372 12.0928V6.0017H59.6617C54.3189 6.0017 49.983 10.5585 49.983 16.1827C49.983 21.8069 54.3189 26.3637 59.6617 26.3637H71.8732V20.4572L60.6224 20.4675Z" fill="black"/>
<path d="M33.3387 16.1878C33.3125 15.0726 33.7307 13.9926 34.5014 13.1853C35.2721 12.378 36.3322 11.9093 37.4486 11.8824H41.9386L37.8647 18.9742H44.4302L48.6274 12.0928V6.0017H36.4571C31.104 6.0017 26.7629 10.5534 26.7629 16.1775C26.7629 21.8017 31.104 26.3637 36.4571 26.3637H48.6634V20.4572H37.4435C36.8918 20.4459 36.3478 20.3261 35.8426 20.1045C35.3373 19.883 34.8808 19.5641 34.499 19.1661C34.1173 18.7681 33.8179 18.2989 33.6179 17.7852C33.4179 17.2715 33.3213 16.7234 33.3336 16.1724" fill="black"/>
</svg>
