<svg xmlns="http://www.w3.org/2000/svg" width="467.01" height="117.253" viewBox="0 0 467.01 117.253"><g transform="translate(-167.141 -167.141)"><path d="M608.229,211.387l-12.211-34.4c-1.947,5.933-6.807,21.179-11.007,34.4Zm25.922,23.976v1.632h-26.9l.01-1.576c6.937-.793,8.8-2.2,7.112-6.756l-5.407-15.056H584.306c-2.087,6.572-3.951,12.449-5.125,16.158-1.162,4.3.745,4.664,11.327,5.6v1.63H568.435l0-1.632c5.449-.991,7.049-1.675,8.578-6.347l19.848-61.875H603.6l23.1,62.225c1.188,3.27,2.592,5.3,7.447,6m-102.945-48.3c0-8.72-3.17-17.2-13.969-17.2h-8.223v34h6.043c12.781,0,16.15-7.289,16.15-16.8m21.329,48.3v1.632H535.962a81.824,81.824,0,0,1-6.638-10.5l-5.548-10.3c-2.377-4.062-5.153-8.127-8.421-10.108h-6.341v24.336c0,3.667.791,4.452,7.628,4.948v1.632H489.989v-1.632c6.837-.5,7.629-1.281,7.629-4.948v-56.2c0-3.667-.792-4.453-7.629-4.949v-1.631h30.022c14.862,0,23.284,7.926,23.284,18.825,0,9.611-7.034,19.119-25.464,19.616,12.286,2.476,15.458,6.74,17.835,10.505l7.16,11.734c3.269,5.053,6.241,6.55,9.71,7.045m-276.5-23.976-12.211-34.4c-1.947,5.933-6.807,21.179-11.007,34.4Zm25.922,23.976v1.632h-26.9l.01-1.576c6.937-.793,8.8-2.2,7.112-6.756l-5.407-15.056H252.115c-2.087,6.572-3.951,12.449-5.127,16.158-1.16,4.3.746,4.664,11.328,5.6v1.63H236.243l0-1.632c5.449-.991,7.049-1.675,8.579-6.347l19.848-61.875h6.737l23.1,62.225c1.19,3.27,2.592,5.3,7.448,6m147.57-66.094c10.923.484,10.714,2.154,10.714,5.732v34.834c0,14.694-6.952,24.263-19.518,24.263-11.793,0-19.237-7.25-19.237-21.557V174.218c0-3.667.793-4.453,7.63-4.949v-1.631H402.464v1.631c6.837.5,7.63,1.282,7.63,4.949v36.025c0,17.141,8.521,27.741,26.752,27.741,16.151,0,25.96-9.907,25.96-27.741V174.218c0-3.667.99-4.453,9.411-4.949v-1.631H449.529Zm-76.624,33.048c0-20.015-9.115-32.46-22.392-32.46H338.227v64.918h12.286c13.474,0,22.392-12.446,22.392-32.458m12.087,0c0,20.806-15.555,34.678-34.479,34.678H319.2v-1.632c6.836-.5,7.628-1.281,7.628-4.948v-56.2c0-3.667-.793-4.453-7.628-4.949v-1.631h31.31c18.923,0,34.479,13.872,34.479,34.679M209.745,218.168c0-9.511-4.756-15.733-16.15-15.733h-7.43v32.34h9.808c11.2,0,13.773-7.887,13.773-16.607m-23.581-17.953H193c9.809,0,14.169-5.627,14.169-14.743,0-9.511-3.467-15.615-12.979-15.615h-8.025Zm35.668,18.45c0,10.9-7.926,18.33-22.789,18.33h-31.9v-1.632c6.836-.5,7.629-1.281,7.629-4.948v-56.2c0-3.667-.793-4.453-7.629-4.949v-1.631h28.931c14.862,0,22.789,6.935,22.789,16.844,0,7.927-6.837,14.763-20.707,16.645v.2c18.23,1.683,23.68,9.709,23.68,17.338"/><path d="M537.74,310.993a3.6,3.6,0,0,0-3.5-3.686,3.41,3.41,0,0,0-3.591,3.439,3.514,3.514,0,0,0,3.343,3.686,3.625,3.625,0,0,0,3.748-3.439m-4.212,13.967a6.14,6.14,0,0,1-5.916-3.9l2.883-1.239a3.469,3.469,0,0,0,3.157,2.167c2.818,0,4.645-2.972,4.337-6.781a4.588,4.588,0,0,1-4.307,2.291c-3.467,0-6.225-2.911-6.225-6.906a6.645,6.645,0,0,1,6.907-6.442c3.624,0,6.319,2.726,6.657,6.97.464,6.317-.463,14.059-7.494,13.842m-25.684-17.467h9.073L507.9,324.651h3.689l10.56-20.224H507.844Zm-10.165,3.5a3.6,3.6,0,0,0-3.5-3.686,3.41,3.41,0,0,0-3.591,3.439,3.513,3.513,0,0,0,3.343,3.686,3.625,3.625,0,0,0,3.749-3.439m3.282.125c.464,6.317-.464,14.059-7.494,13.842a6.142,6.142,0,0,1-5.917-3.9l2.882-1.239a3.471,3.471,0,0,0,3.158,2.167c2.819,0,4.647-2.972,4.338-6.781a4.591,4.591,0,0,1-4.307,2.291c-3.468,0-6.226-2.911-6.226-6.906a6.646,6.646,0,0,1,6.906-6.442c3.626,0,6.319,2.726,6.659,6.97m-27.788-1.395,3.346-1.209v16.136h3.158V304.21l-6.5,2.572Zm-19.459,11.056a2.122,2.122,0,0,0-2.167,2.107,2.187,2.187,0,0,0,4.368,0,2.13,2.13,0,0,0-2.2-2.107m-22.244-14.4h6.288v18.272H441.1V306.379h6.289v-3.066h-15.92Zm-11,6.225-2.725-.712c-2.539-.651-2.852-1.952-2.852-2.789,0-1.765,1.738-2.941,3.686-2.941,2.2,0,3.719,1.27,3.719,3.22h3.282c0-3.9-3-6.318-6.937-6.318-3.75,0-7.033,2.449-7.033,6.1,0,1.889.713,4.491,5.3,5.729l2.693.683c1.982.463,3.5,1.486,3.377,3.468-.219,1.549-1.519,2.911-4.028,2.911a3.977,3.977,0,0,1-4.243-3.5h-3.282c0,3.467,3.1,6.5,7.526,6.5,4.088,0,6.967-2.384,7.278-5.73.342-3.065-1.456-5.481-5.759-6.627m-24.848,9.044h9.88v3H392.336v-9h-3.971v-2.988h3.971v-9.353h12.851v3.033h-9.569v6.319h8.361v3h-8.361Z" transform="translate(-66.032 -40.571)"/></g></svg>