<svg width="214" height="41" viewBox="0 0 214 41" fill="none" xmlns="http://www.w3.org/2000/svg">
<path d="M159.64 13.2508C157.539 13.1944 155.921 11.9064 156.044 10.3618C156.044 8.82233 157.78 7.62667 159.779 7.71903C161.895 7.71903 163.514 9.01218 163.509 10.603C163.385 12.086 161.664 13.2919 159.656 13.2508" fill="black"/>
<path d="M208.366 9.77847C208.725 9.77847 209.044 9.77846 209.044 9.32175C209.044 8.97794 208.731 8.91126 208.438 8.91126H207.862V9.77847H208.366ZM207.852 11.3179H207.426V8.53147H208.489C209.147 8.53147 209.476 8.77267 209.476 9.32175C209.481 9.42041 209.467 9.51917 209.433 9.61203C209.399 9.70489 209.346 9.78991 209.279 9.8619C209.211 9.9339 209.129 9.99138 209.039 10.0308C208.948 10.0703 208.85 10.0909 208.751 10.0915L209.547 11.3179H209.075L208.335 10.112H207.852V11.3179ZM208.366 11.9388C208.767 11.949 209.162 11.8396 209.501 11.6246C209.839 11.4095 210.106 11.0985 210.267 10.7313C210.428 10.3641 210.475 9.95736 210.404 9.56298C210.332 9.16861 210.145 8.80452 209.865 8.51713C209.585 8.22973 209.226 8.03205 208.834 7.94941C208.441 7.86677 208.033 7.90286 207.661 8.05308C207.289 8.20331 206.97 8.46089 206.745 8.79287C206.52 9.12486 206.399 9.51623 206.398 9.91703C206.389 10.1804 206.432 10.443 206.527 10.689C206.622 10.9349 206.765 11.1592 206.949 11.3481C207.133 11.5371 207.354 11.6869 207.597 11.7884C207.84 11.89 208.102 11.9411 208.366 11.9388ZM205.91 9.91703C205.906 9.43227 206.046 8.95719 206.313 8.55208C206.579 8.14697 206.96 7.83009 207.407 7.64153C207.855 7.45297 208.348 7.40124 208.824 7.49295C209.301 7.58465 209.739 7.81565 210.084 8.15663C210.429 8.49761 210.665 8.93317 210.762 9.4082C210.859 9.88322 210.812 10.3763 210.628 10.8248C210.444 11.2734 210.131 11.6572 209.728 11.9277C209.325 12.1982 208.851 12.3432 208.366 12.3442C208.044 12.349 207.725 12.2897 207.426 12.1697C207.128 12.0498 206.857 11.8715 206.628 11.6455C206.399 11.4195 206.218 11.1503 206.095 10.8535C205.972 10.5567 205.909 10.2383 205.91 9.91703Z" fill="black"/>
<path d="M58.0522 25.2912C56.1977 27.0308 54.6102 27.7749 53.2385 26.492C52.5245 25.753 51.4097 25.6043 51.5535 13.2577C51.5535 8.84974 51.4148 10.1788 51.795 6.16076C51.9902 4.46735 52.6169 4.8933 54.2044 4.71883C57.1892 4.39554 57.0864 5.04726 57.0916 6.52514C57.0402 6.52514 57.0916 8.26475 56.9683 10.2507C56.8604 12.7035 57.1275 20.1802 57.0916 20.2366C57.1275 20.1802 56.9734 21.0834 57.9289 20.1186C58.9975 18.9435 62.4344 15.4591 63.8266 15.6644C66.1127 15.8697 67.3868 22.1199 69.005 21.9198C69.6832 21.8941 70.5154 21.304 71.7689 20.3803C72.8377 19.5402 73.9638 18.7754 75.139 18.0916C76.6443 16.9422 80.7182 15.4695 82.2388 15.4489C83.1687 15.4489 83.78 15.8902 83.6876 16.4085C83.6465 17.599 79.2027 17.4913 79.2335 21.7043C79.2303 21.9582 79.296 22.2082 79.4237 22.4278C79.5513 22.6474 79.7361 22.8284 79.9584 22.9515C80.1807 23.0746 80.4323 23.1353 80.6864 23.1272C80.9404 23.119 81.1875 23.0422 81.4015 22.905C84.0575 21.5708 82.9786 19.6414 83.5643 18.456C83.7617 18.0765 84.0902 17.7815 84.489 17.6258C84.8877 17.47 85.3295 17.4642 85.7322 17.6093C87.3299 18.4149 88.6811 21.7761 89.5801 21.9403C90.6076 22.1199 92.2412 19.6824 93.916 18.2148C95.4572 16.8549 96.4847 15.6798 97.5122 15.685C98.5396 15.6901 99.4798 16.5881 100.04 17.3733C100.6 18.1584 102.403 20.7754 102.932 20.7395C103.528 20.8114 105.768 17.2039 106.42 16.5265C106.97 15.9364 107.602 15.531 108.105 15.5669C109.41 15.531 109.647 16.1211 110.391 16.7677C111.362 17.7222 112.873 20.7652 113.638 20.7395C114.065 20.8062 115.375 18.5381 116.166 17.7324C116.957 16.9268 117.954 15.5567 118.935 15.5669C119.916 15.5772 120.594 16.5368 121.462 17.4913C123.517 19.4721 125.059 21.8171 126.035 21.8223C127.011 21.7299 129.369 19.2565 130.247 17.717C131.552 15.2077 131.306 15.413 133.016 15.3104C136.022 15.1923 135.508 16.3367 135.544 16.9935C135.431 18.533 135.374 19.9339 135.662 20.1238C136.099 20.3239 137.404 15.8132 143.964 15.5515C145.901 15.5156 149.425 16.9114 149.261 19.8825C149.163 22.3713 147.689 23.0282 148.3 23.2489C150.53 23.762 156.042 19.7953 156.119 18.6766C156.237 17.1782 155.872 15.6747 156.961 15.5515C158.758 15.2545 160.594 15.2945 162.376 15.6695C163.722 15.8389 162.063 23.059 163.46 23.2489C166.568 23.4798 172.481 17.0192 173.221 16.3931C174.978 14.8536 177.475 14.7869 178.394 14.7099C179.396 14.633 180.193 15.0692 180.079 15.6695C179.766 16.7626 176.206 16.4342 176.226 20.8422C176.226 21.694 176.848 23.136 177.67 23.372C178.492 23.6081 179.355 23.1103 179.725 21.8325C180.598 19.313 179.725 18.9178 179.478 18.1019C178.965 16.6343 180.578 16.8806 182.253 16.778C184.564 16.6651 190.472 15.454 191.032 15.336C191.502 15.1863 192.006 15.1863 192.476 15.336C193.503 15.7414 194.212 17.6503 194.402 18.2251C194.592 18.7998 194.844 19.667 195.245 19.667C195.8 19.5695 195.902 19.354 196.57 18.5843C197.238 17.8146 199.452 15.2847 201.024 15.336C203.388 15.4643 204.96 20.0981 207.158 21.3502C208.484 22.161 211.222 20.0057 211.854 19.5439C212.368 19.1436 214.073 18.7279 213.909 20.1494C213.76 21.109 211.464 23.6902 209.578 24.9628C207.934 25.9891 206.372 27.0565 204.646 27.0154C201.898 26.8717 199.961 21.8172 198.749 21.6017C197.793 21.3348 193.832 28.7858 191.649 26.7742C188.952 24.4599 187.806 18.5176 187.195 18.5946C186.386 18.6058 185.58 18.6864 184.785 18.8357C184.451 18.9692 184.888 19.7183 185.15 21.3604C185.556 23.3053 183.676 28.6729 175.641 27.2566C170.313 26.3022 170.817 22.356 170.468 22.8076C168.438 25.0295 164.683 27.1591 161.082 27.1386C154.84 27.1386 156.54 22.3201 156.026 22.8076C154.799 23.8852 150.586 27.2361 145.675 27.1386C141.565 26.9487 139.197 25.6761 139.176 24.3676C139.176 23.8031 140.63 24.619 141.945 23.8903C143.897 22.8383 144.139 19.8672 142.788 19.5542C141.899 19.3797 139.361 19.585 137.013 24.3676C136.364 25.6889 135.956 27.1157 135.811 28.5806C135.153 36.1701 136.571 39.3568 135.57 39.7673C134.646 40.2551 133.6 40.4654 132.559 40.3729C131.018 40.2959 131.018 39.6031 130.756 36.2676C130.242 27.272 130.638 22.9256 130.514 22.4124C130.252 21.8531 127.011 27.1027 122.454 27.1078C120.456 27.1386 117.522 22.084 116.916 22.2944C116.094 22.4586 113.628 27.1899 111.861 27.2258C109.292 27.2258 107.494 22.1712 106.564 22.1712C105.907 22.1712 102.865 27.1232 101.031 27.2258C98.4626 27.3336 96.8083 22.2534 95.4932 21.9301C94.5736 21.6427 90.3558 27.1283 87.6742 27.3438C85.4651 27.4208 84.4633 24.2649 84.1808 24.5779C82.4565 26.2338 80.1938 27.2155 77.8053 27.3438C75.3497 27.2925 73.2177 26.1431 72.9916 23.3772C72.9916 23.0282 72.7553 23.2591 72.3906 23.6183C71.697 24.0802 68.2807 27.1694 66.1281 27.2104C62.0183 27.272 61.8333 22.2431 60.5952 22.397C60.2253 22.4432 58.2886 25.1475 58.0677 25.2861" fill="black"/>
<path d="M48.6666 21.0676C48.2402 20.7546 47.6083 22.3146 37.1127 24.6597C35.9825 24.9317 33.3316 25.0497 33.2751 25.0856V5.28808L36.2805 5.77042C46.0414 7.82304 46.401 8.92121 46.8737 8.41831C47.6237 7.53569 43.5909 -0.756905 22.5638 0.207827C14.2772 0.669667 1.82945 5.73453 1.02289 14.5249C0.509153 20.262 6.58149 30.1351 24.968 30.289C38.7258 30.4224 45.1218 25.1575 46.9918 23.3101C48.1785 22.1247 49.0468 21.3242 48.6769 21.0266M18.9522 24.8752C18.6645 25.1421 18.4385 25.0343 17.8682 24.9933C13.5991 24.5314 5.45641 22.5044 5.35366 14.766C5.35366 13.0162 6.86404 6.95582 18.1097 5.14438C18.8443 5.06228 19.0601 5.38042 19.0704 6.22713C19.0704 7.1816 19.0704 23.8438 19.0704 23.7925C19.0704 23.8438 19.1423 24.6649 18.9522 24.8752Z" fill="black"/>
</svg>
