<svg width="118" height="39" viewBox="0 0 118 39" fill="none" xmlns="http://www.w3.org/2000/svg">
<g clip-path="url(#clip0_3_805)">
<mask id="mask0_3_805" style="mask-type:luminance" maskUnits="userSpaceOnUse" x="0" y="0" width="118" height="39">
<path d="M0.546875 38.4288H118V0.714355H0.546875V38.4288Z" fill="white"/>
</mask>
<g mask="url(#mask0_3_805)">
<path d="M38.3461 33.386L38.232 5.74574C38.2218 5.08999 38.3452 4.43879 38.5952 3.82989C38.8451 3.22099 39.2165 2.6665 39.6879 2.19858C40.1594 1.7306 40.7215 1.35851 41.3416 1.1039C41.9618 0.849284 42.6276 0.717209 43.3005 0.715333H43.8527C44.5305 0.714965 45.2017 0.844838 45.828 1.09753C46.4543 1.35021 47.0233 1.72076 47.5026 2.18797C47.9818 2.65517 48.3619 3.20986 48.621 3.82033C48.8802 4.43079 49.0133 5.08507 49.0129 5.74574L49.1274 33.386C49.1278 34.0466 48.9945 34.7009 48.7353 35.3114C48.4761 35.9218 48.096 36.4765 47.6167 36.9436C47.1374 37.4108 46.5683 37.7813 45.942 38.0339C45.3157 38.2865 44.6445 38.4163 43.9667 38.4159H43.3786C42.7076 38.4133 42.0439 38.2805 41.4262 38.0252C40.8085 37.77 40.2491 37.3974 39.7807 36.9292C39.3122 36.461 38.9441 35.9065 38.6978 35.2982C38.4515 34.6899 38.3319 34.0398 38.3461 33.386Z" fill="black"/>
<path d="M103.485 3.98188L114.95 22.1733C117.428 26.1028 117.999 27.1249 117.999 30.019C117.999 34.5849 113.753 38.0873 109.992 38.0873H94.4997C91.6811 38.0873 89.3977 36.177 89.3977 33.4291V33.1114C89.3978 31.7925 89.9353 30.5277 90.892 29.5951C91.8487 28.6624 93.1462 28.1384 94.4992 28.1381L103.998 28.1354C104.595 28.1354 104.96 28.0593 105.122 27.6949C105.208 27.5208 105.239 27.3258 105.212 27.1344C105.185 26.943 105.1 26.7637 104.969 26.6189L98.2026 16.0448C98.0966 15.8681 97.966 15.6237 97.7564 15.6237C97.5615 15.6237 97.3912 15.8681 97.2994 16.0586L86.9694 33.3397C85.3607 36.0815 83.4681 38.0846 80.649 38.0846H60.7849C57.0238 38.0846 53.2324 34.465 53.2324 30.7255V5.72894C53.2325 4.40931 53.7704 3.14376 54.7278 2.21069C55.6851 1.27761 56.9835 0.753418 58.3373 0.753418H58.9898C60.3426 0.753662 61.64 1.27759 62.5967 2.21001C63.5534 3.14243 64.091 4.40701 64.0914 5.72571V26.149C64.0854 26.3285 64.1172 26.5073 64.1851 26.6743C64.2529 26.8413 64.3552 26.9929 64.4856 27.1198C64.616 27.2467 64.7718 27.3461 64.9433 27.4119C65.1148 27.4776 65.2983 27.5084 65.4824 27.5021H75.3492C77.0804 27.5021 78.1261 26.8933 79.0322 25.423L92.3057 3.98188C92.8778 3.01108 93.7069 2.20788 94.7064 1.65619C95.7058 1.1045 96.839 0.824575 97.9873 0.84566C100.306 0.84566 102.136 1.86724 103.485 3.98188Z" fill="black"/>
<path d="M12.7945 25.1417C12.6117 25.1417 12.4307 25.1768 12.2619 25.2451C12.0931 25.3135 11.9397 25.4136 11.8107 25.5399C11.6817 25.6662 11.5796 25.816 11.5102 25.9808C11.4408 26.1457 11.4055 26.3223 11.4063 26.5005L11.403 33.4536C11.4032 34.107 11.2712 34.754 11.0148 35.3577C10.7583 35.9614 10.3823 36.5098 9.90826 36.9718C9.43421 37.4337 8.87142 37.8001 8.25205 38.0499C7.63268 38.2997 6.96887 38.4281 6.29856 38.4278H5.64892C4.97878 38.428 4.31517 38.2994 3.69601 38.0495C3.07686 37.7996 2.5143 37.4332 2.04048 36.9712C1.56666 36.5093 1.19087 35.9609 0.934594 35.3573C0.678314 34.7537 0.546565 34.1069 0.546876 33.4536L0.549715 20.8008C0.538118 20.02 0.687313 19.2448 0.988473 18.5212C1.28963 17.7976 1.73664 17.1402 2.30304 16.5879C2.86945 16.0356 3.54374 15.5997 4.28602 15.3059C5.02831 15.0121 5.82351 14.8665 6.62457 14.8775H27.3587C28.7113 14.8778 30.0084 15.4015 30.965 16.3335C31.9216 17.2655 32.4594 18.5296 32.4603 19.848V20.1708C32.4601 21.4893 31.9226 22.7536 30.966 23.6858C30.0095 24.618 28.7123 25.1417 27.3597 25.1417H12.7945Z" fill="black"/>
<path d="M5.70857 1.43132H29.8632C30.5359 1.42143 31.204 1.54181 31.8286 1.78547C32.4533 2.02914 33.0221 2.39125 33.5021 2.85081C33.9821 3.31036 34.3637 3.85823 34.6249 4.46263C34.886 5.06704 35.0215 5.71596 35.0234 6.37179V6.6891C35.0234 7.34951 34.8899 8.00345 34.6306 8.61355C34.3712 9.22366 33.9911 9.77797 33.5119 10.2448C33.0327 10.7117 32.4638 11.0819 31.8377 11.3344C31.2117 11.5869 30.5407 11.7166 29.8632 11.7163H5.70857C5.03101 11.7167 4.36 11.587 3.7339 11.3345C3.10779 11.0821 2.53885 10.7118 2.05959 10.245C1.58033 9.77813 1.20014 9.22379 0.940752 8.61366C0.681361 8.00352 0.547851 7.34955 0.547852 6.6891V6.33858C0.550022 5.68432 0.685925 5.03704 0.947622 4.43456C1.20932 3.83208 1.59156 3.28646 2.07203 2.8296C2.55249 2.37274 3.12153 2.01378 3.74592 1.7737C4.3703 1.53361 5.03751 1.41722 5.70857 1.43132Z" fill="black"/>
</g>
</g>
<defs>
<clipPath id="clip0_3_805">
<rect width="117.453" height="37.7144" fill="white" transform="translate(0.546875 0.714355)"/>
</clipPath>
</defs>
</svg>
